%TF.GenerationSoftware,KiCad,Pcbnew,(5.1.8)-1*%
%TF.CreationDate,2021-03-07T23:02:04+01:00*%
%TF.ProjectId,Telemetry_receiver,54656c65-6d65-4747-9279-5f7265636569,rev?*%
%TF.SameCoordinates,Original*%
%TF.FileFunction,Copper,L1,Top*%
%TF.FilePolarity,Positive*%
%FSLAX46Y46*%
G04 Gerber Fmt 4.6, Leading zero omitted, Abs format (unit mm)*
G04 Created by KiCad (PCBNEW (5.1.8)-1) date 2021-03-07 23:02:04*
%MOMM*%
%LPD*%
G01*
G04 APERTURE LIST*
%TA.AperFunction,ComponentPad*%
%ADD10C,2.400000*%
%TD*%
%TA.AperFunction,ComponentPad*%
%ADD11C,1.600000*%
%TD*%
%TA.AperFunction,ComponentPad*%
%ADD12C,3.800000*%
%TD*%
%TA.AperFunction,ComponentPad*%
%ADD13C,1.524000*%
%TD*%
%TA.AperFunction,ComponentPad*%
%ADD14R,1.524000X1.524000*%
%TD*%
%TA.AperFunction,ViaPad*%
%ADD15C,0.800000*%
%TD*%
%TA.AperFunction,Conductor*%
%ADD16C,1.000000*%
%TD*%
G04 APERTURE END LIST*
D10*
%TO.P, ,1*%
%TO.N,N/C*%
X205740000Y-97790000D03*
%TD*%
%TO.P, ,1*%
%TO.N,N/C*%
X205740000Y-110236000D03*
%TD*%
D11*
%TO.P,U1,0*%
%TO.N,Net-(C100nF1-Pad1)*%
X132115000Y-114345000D03*
%TO.P,U1,21*%
%TO.N,Net-(U1-Pad21)*%
X132115000Y-94025000D03*
%TO.P,U1,1*%
%TO.N,Net-(U1-Pad1)*%
X134655000Y-114345000D03*
%TO.P,U1,2*%
%TO.N,Net-(C100nF1-Pad2)*%
X137195000Y-114345000D03*
%TO.P,U1,3*%
%TO.N,Net-(U1-Pad3)*%
X139735000Y-114345000D03*
%TO.P,U1,4*%
%TO.N,Net-(U1-Pad4)*%
X142275000Y-114345000D03*
%TO.P,U1,5*%
%TO.N,Net-(U1-Pad5)*%
X144815000Y-114345000D03*
%TO.P,U1,6*%
%TO.N,Net-(U1-Pad6)*%
X147355000Y-114345000D03*
%TO.P,U1,7*%
%TO.N,Net-(U1-Pad7)*%
X149895000Y-114345000D03*
%TO.P,U1,8*%
%TO.N,Net-(U1-Pad8)*%
X152435000Y-114345000D03*
%TO.P,U1,9*%
%TO.N,Net-(U1-Pad9)*%
X154975000Y-114345000D03*
%TO.P,U1,10*%
%TO.N,Net-(U1-Pad10)*%
X157515000Y-114345000D03*
%TO.P,U1,11*%
%TO.N,Net-(U1-Pad11)*%
X157515000Y-94025000D03*
%TO.P,U1,12*%
%TO.N,Net-(U1-Pad12)*%
X154975000Y-94025000D03*
%TO.P,U1,13*%
%TO.N,Net-(U1-Pad13)*%
X152435000Y-94025000D03*
%TO.P,U1,14*%
%TO.N,Net-(U1-Pad14)*%
X149895000Y-94025000D03*
%TO.P,U1,15*%
%TO.N,Net-(U1-Pad15)*%
X147355000Y-94025000D03*
%TO.P,U1,16*%
%TO.N,Net-(U1-Pad16)*%
X144815000Y-94025000D03*
%TO.P,U1,17*%
%TO.N,Net-(U1-Pad17)*%
X142275000Y-94025000D03*
%TO.P,U1,18*%
%TO.N,Net-(U1-Pad18)*%
X139735000Y-94025000D03*
%TO.P,U1,19*%
%TO.N,Net-(U1-Pad19)*%
X137195000Y-94025000D03*
%TO.P,U1,20*%
%TO.N,Net-(U1-Pad20)*%
X134655000Y-94025000D03*
D12*
%TO.P,U1,25*%
%TO.N,N/C*%
X128393000Y-95295000D03*
%TO.P,U1,22*%
X128393000Y-113075000D03*
%TO.P,U1,23*%
X161413000Y-113075000D03*
%TO.P,U1,24*%
X161413000Y-95295000D03*
%TD*%
D13*
%TO.P,U2,8*%
%TO.N,Net-(U1-Pad8)*%
X171450000Y-107950000D03*
%TO.P,U2,7*%
%TO.N,Net-(U1-Pad5)*%
X168910000Y-107950000D03*
%TO.P,U2,6*%
%TO.N,Net-(U1-Pad4)*%
X171450000Y-105410000D03*
%TO.P,U2,5*%
%TO.N,Net-(U1-Pad3)*%
X168910000Y-105410000D03*
%TO.P,U2,4*%
%TO.N,Net-(U1-Pad6)*%
X171450000Y-102870000D03*
%TO.P,U2,3*%
%TO.N,Net-(U1-Pad7)*%
X168910000Y-102870000D03*
%TO.P,U2,2*%
%TO.N,Net-(C100nF1-Pad1)*%
X171450000Y-100330000D03*
D14*
%TO.P,U2,1*%
%TO.N,Net-(C100nF1-Pad2)*%
X168910000Y-100330000D03*
%TD*%
%TO.P,C100nF1,2*%
%TO.N,Net-(C100nF1-Pad2)*%
%TA.AperFunction,SMDPad,CuDef*%
G36*
G01*
X169730000Y-93505000D02*
X169730000Y-94455000D01*
G75*
G02*
X169480000Y-94705000I-250000J0D01*
G01*
X168980000Y-94705000D01*
G75*
G02*
X168730000Y-94455000I0J250000D01*
G01*
X168730000Y-93505000D01*
G75*
G02*
X168980000Y-93255000I250000J0D01*
G01*
X169480000Y-93255000D01*
G75*
G02*
X169730000Y-93505000I0J-250000D01*
G01*
G37*
%TD.AperFunction*%
%TO.P,C100nF1,1*%
%TO.N,Net-(C100nF1-Pad1)*%
%TA.AperFunction,SMDPad,CuDef*%
G36*
G01*
X171630000Y-93505000D02*
X171630000Y-94455000D01*
G75*
G02*
X171380000Y-94705000I-250000J0D01*
G01*
X170880000Y-94705000D01*
G75*
G02*
X170630000Y-94455000I0J250000D01*
G01*
X170630000Y-93505000D01*
G75*
G02*
X170880000Y-93255000I250000J0D01*
G01*
X171380000Y-93255000D01*
G75*
G02*
X171630000Y-93505000I0J-250000D01*
G01*
G37*
%TD.AperFunction*%
%TD*%
D15*
%TO.N,Net-(C100nF1-Pad1)*%
X165292001Y-98867999D03*
%TO.N,Net-(U1-Pad5)*%
X151765000Y-107950000D03*
%TD*%
D16*
%TO.N,Net-(C100nF1-Pad2)*%
X151210000Y-100330000D02*
X137195000Y-114345000D01*
X168910000Y-100330000D02*
X151210000Y-100330000D01*
X168910000Y-100330000D02*
X168910000Y-93980000D01*
%TO.N,Net-(C100nF1-Pad1)*%
X171130000Y-100010000D02*
X171450000Y-100330000D01*
X171130000Y-93980000D02*
X171130000Y-100010000D01*
X147592001Y-98867999D02*
X132115000Y-114345000D01*
X165292001Y-98867999D02*
X147592001Y-98867999D01*
%TO.N,Net-(U1-Pad3)*%
X140054998Y-114345000D02*
X139735000Y-114345000D01*
X148989998Y-105410000D02*
X140054998Y-114345000D01*
X168910000Y-105410000D02*
X148989998Y-105410000D01*
%TO.N,Net-(U1-Pad4)*%
X146145001Y-110474999D02*
X142275000Y-114345000D01*
X171088763Y-110474999D02*
X146145001Y-110474999D01*
X172912001Y-108651761D02*
X171088763Y-110474999D01*
X172912001Y-106872001D02*
X172912001Y-108651761D01*
X171450000Y-105410000D02*
X172912001Y-106872001D01*
%TO.N,Net-(U1-Pad5)*%
X145134998Y-114345000D02*
X144815000Y-114345000D01*
X168910000Y-107950000D02*
X151765000Y-107950000D01*
X151765000Y-107950000D02*
X151529998Y-107950000D01*
%TO.N,Net-(U1-Pad6)*%
X171632500Y-103129300D02*
X171450000Y-102870000D01*
%TO.N,Net-(U1-Pad7)*%
X149895000Y-114345000D02*
X149907300Y-114337600D01*
%TD*%
M02*
