%TF.GenerationSoftware,KiCad,Pcbnew,(5.1.8)-1*%
%TF.CreationDate,2021-03-07T23:02:04+01:00*%
%TF.ProjectId,Telemetry_receiver,54656c65-6d65-4747-9279-5f7265636569,rev?*%
%TF.SameCoordinates,Original*%
%TF.FileFunction,Soldermask,Bot*%
%TF.FilePolarity,Negative*%
%FSLAX46Y46*%
G04 Gerber Fmt 4.6, Leading zero omitted, Abs format (unit mm)*
G04 Created by KiCad (PCBNEW (5.1.8)-1) date 2021-03-07 23:02:04*
%MOMM*%
%LPD*%
G01*
G04 APERTURE LIST*
%ADD10C,3.200000*%
%ADD11C,2.400000*%
%ADD12C,1.600000*%
%ADD13C,3.800000*%
%ADD14C,1.524000*%
%ADD15R,1.524000X1.524000*%
G04 APERTURE END LIST*
D10*
%TO.C, *%
X204724000Y-120904000D03*
%TD*%
%TO.C, *%
X129286000Y-120904000D03*
%TD*%
%TO.C, *%
X204724000Y-88138000D03*
%TD*%
%TO.C, *%
X129286000Y-88138000D03*
%TD*%
D11*
%TO.C, *%
X205740000Y-97790000D03*
%TD*%
%TO.C, *%
X205740000Y-110236000D03*
%TD*%
D12*
%TO.C,U1*%
X132115000Y-114345000D03*
X132115000Y-94025000D03*
X134655000Y-114345000D03*
X137195000Y-114345000D03*
X139735000Y-114345000D03*
X142275000Y-114345000D03*
X144815000Y-114345000D03*
X147355000Y-114345000D03*
X149895000Y-114345000D03*
X152435000Y-114345000D03*
X154975000Y-114345000D03*
X157515000Y-114345000D03*
X157515000Y-94025000D03*
X154975000Y-94025000D03*
X152435000Y-94025000D03*
X149895000Y-94025000D03*
X147355000Y-94025000D03*
X144815000Y-94025000D03*
X142275000Y-94025000D03*
X139735000Y-94025000D03*
X137195000Y-94025000D03*
X134655000Y-94025000D03*
D13*
X128393000Y-95295000D03*
X128393000Y-113075000D03*
X161413000Y-113075000D03*
X161413000Y-95295000D03*
%TD*%
D14*
%TO.C,U2*%
X171450000Y-107950000D03*
X168910000Y-107950000D03*
X171450000Y-105410000D03*
X168910000Y-105410000D03*
X171450000Y-102870000D03*
X168910000Y-102870000D03*
X171450000Y-100330000D03*
D15*
X168910000Y-100330000D03*
%TD*%
M02*
