M48
; DRILL file {KiCad (5.1.8)-1} date 03/07/21 23:02:20
; FORMAT={-:-/ absolute / inch / decimal}
; #@! TF.CreationDate,2021-03-07T23:02:20+01:00
; #@! TF.GenerationSoftware,Kicad,Pcbnew,(5.1.8)-1
; #@! TF.FileFunction,Plated,1,2,PTH
FMAT,2
INCH
T1C0.0157
T2C0.0300
T3C0.0402
T4C0.0472
T5C0.1000
%
G90
G05
T1
X5.975Y-4.25
X6.5076Y-3.8924
T2
X6.65Y-3.95
X6.65Y-4.05
X6.65Y-4.15
X6.65Y-4.25
X6.75Y-3.95
X6.75Y-4.05
X6.75Y-4.15
X6.75Y-4.25
T3
X5.2014Y-3.7018
X5.2014Y-4.5018
X5.3014Y-3.7018
X5.3014Y-4.5018
X5.4014Y-3.7018
X5.4014Y-4.5018
X5.5014Y-3.7018
X5.5014Y-4.5018
X5.6014Y-3.7018
X5.6014Y-4.5018
X5.7014Y-3.7018
X5.7014Y-4.5018
X5.8014Y-3.7018
X5.8014Y-4.5018
X5.9014Y-3.7018
X5.9014Y-4.5018
X6.0014Y-3.7018
X6.0014Y-4.5018
X6.1014Y-3.7018
X6.1014Y-4.5018
X6.2014Y-3.7018
X6.2014Y-4.5018
T4
X8.1Y-4.34
X8.1Y-3.85
T5
X5.0548Y-3.7518
X5.0548Y-4.4518
X6.3548Y-3.7518
X6.3548Y-4.4518
T0
M30
