%TF.GenerationSoftware,KiCad,Pcbnew,(5.1.8)-1*%
%TF.CreationDate,2021-03-07T23:02:04+01:00*%
%TF.ProjectId,Telemetry_receiver,54656c65-6d65-4747-9279-5f7265636569,rev?*%
%TF.SameCoordinates,Original*%
%TF.FileFunction,Legend,Bot*%
%TF.FilePolarity,Positive*%
%FSLAX46Y46*%
G04 Gerber Fmt 4.6, Leading zero omitted, Abs format (unit mm)*
G04 Created by KiCad (PCBNEW (5.1.8)-1) date 2021-03-07 23:02:04*
%MOMM*%
%LPD*%
G01*
G04 APERTURE LIST*
%ADD10C,0.150000*%
%ADD11C,0.010000*%
G04 APERTURE END LIST*
D10*
X195507619Y-110044476D02*
X196507619Y-110044476D01*
X196507619Y-109663523D01*
X196460000Y-109568285D01*
X196412380Y-109520666D01*
X196317142Y-109473047D01*
X196174285Y-109473047D01*
X196079047Y-109520666D01*
X196031428Y-109568285D01*
X195983809Y-109663523D01*
X195983809Y-110044476D01*
X195507619Y-108901619D02*
X195555238Y-108996857D01*
X195602857Y-109044476D01*
X195698095Y-109092095D01*
X195983809Y-109092095D01*
X196079047Y-109044476D01*
X196126666Y-108996857D01*
X196174285Y-108901619D01*
X196174285Y-108758761D01*
X196126666Y-108663523D01*
X196079047Y-108615904D01*
X195983809Y-108568285D01*
X195698095Y-108568285D01*
X195602857Y-108615904D01*
X195555238Y-108663523D01*
X195507619Y-108758761D01*
X195507619Y-108901619D01*
X195507619Y-107996857D02*
X195555238Y-108092095D01*
X195650476Y-108139714D01*
X196507619Y-108139714D01*
X195555238Y-107663523D02*
X195507619Y-107520666D01*
X195507619Y-107282571D01*
X195555238Y-107187333D01*
X195602857Y-107139714D01*
X195698095Y-107092095D01*
X195793333Y-107092095D01*
X195888571Y-107139714D01*
X195936190Y-107187333D01*
X195983809Y-107282571D01*
X196031428Y-107473047D01*
X196079047Y-107568285D01*
X196126666Y-107615904D01*
X196221904Y-107663523D01*
X196317142Y-107663523D01*
X196412380Y-107615904D01*
X196460000Y-107568285D01*
X196507619Y-107473047D01*
X196507619Y-107234952D01*
X196460000Y-107092095D01*
X195507619Y-106520666D02*
X195555238Y-106615904D01*
X195650476Y-106663523D01*
X196507619Y-106663523D01*
X195507619Y-104806380D02*
X195983809Y-105139714D01*
X195507619Y-105377809D02*
X196507619Y-105377809D01*
X196507619Y-104996857D01*
X196460000Y-104901619D01*
X196412380Y-104854000D01*
X196317142Y-104806380D01*
X196174285Y-104806380D01*
X196079047Y-104854000D01*
X196031428Y-104901619D01*
X195983809Y-104996857D01*
X195983809Y-105377809D01*
X195507619Y-103949238D02*
X196031428Y-103949238D01*
X196126666Y-103996857D01*
X196174285Y-104092095D01*
X196174285Y-104282571D01*
X196126666Y-104377809D01*
X195555238Y-103949238D02*
X195507619Y-104044476D01*
X195507619Y-104282571D01*
X195555238Y-104377809D01*
X195650476Y-104425428D01*
X195745714Y-104425428D01*
X195840952Y-104377809D01*
X195888571Y-104282571D01*
X195888571Y-104044476D01*
X195936190Y-103949238D01*
X195555238Y-103044476D02*
X195507619Y-103139714D01*
X195507619Y-103330190D01*
X195555238Y-103425428D01*
X195602857Y-103473047D01*
X195698095Y-103520666D01*
X195983809Y-103520666D01*
X196079047Y-103473047D01*
X196126666Y-103425428D01*
X196174285Y-103330190D01*
X196174285Y-103139714D01*
X196126666Y-103044476D01*
X195507619Y-102615904D02*
X196174285Y-102615904D01*
X196507619Y-102615904D02*
X196460000Y-102663523D01*
X196412380Y-102615904D01*
X196460000Y-102568285D01*
X196507619Y-102615904D01*
X196412380Y-102615904D01*
X196174285Y-102139714D02*
X195507619Y-102139714D01*
X196079047Y-102139714D02*
X196126666Y-102092095D01*
X196174285Y-101996857D01*
X196174285Y-101854000D01*
X196126666Y-101758761D01*
X196031428Y-101711142D01*
X195507619Y-101711142D01*
X196174285Y-100806380D02*
X195364761Y-100806380D01*
X195269523Y-100854000D01*
X195221904Y-100901619D01*
X195174285Y-100996857D01*
X195174285Y-101139714D01*
X195221904Y-101234952D01*
X195555238Y-100806380D02*
X195507619Y-100901619D01*
X195507619Y-101092095D01*
X195555238Y-101187333D01*
X195602857Y-101234952D01*
X195698095Y-101282571D01*
X195983809Y-101282571D01*
X196079047Y-101234952D01*
X196126666Y-101187333D01*
X196174285Y-101092095D01*
X196174285Y-100901619D01*
X196126666Y-100806380D01*
X195507619Y-99520666D02*
X195507619Y-99568285D01*
X195555238Y-99663523D01*
X195698095Y-99806380D01*
X195983809Y-100044476D01*
X196126666Y-100139714D01*
X196269523Y-100187333D01*
X196364761Y-100187333D01*
X196460000Y-100139714D01*
X196507619Y-100044476D01*
X196507619Y-99996857D01*
X196460000Y-99901619D01*
X196364761Y-99854000D01*
X196317142Y-99854000D01*
X196221904Y-99901619D01*
X196174285Y-99949238D01*
X195983809Y-100234952D01*
X195936190Y-100282571D01*
X195840952Y-100330190D01*
X195698095Y-100330190D01*
X195602857Y-100282571D01*
X195555238Y-100234952D01*
X195507619Y-100139714D01*
X195507619Y-99996857D01*
X195555238Y-99901619D01*
X195602857Y-99854000D01*
X195793333Y-99711142D01*
X195936190Y-99663523D01*
X196031428Y-99663523D01*
X195555238Y-98711142D02*
X195507619Y-98806380D01*
X195507619Y-98996857D01*
X195555238Y-99092095D01*
X195650476Y-99139714D01*
X196031428Y-99139714D01*
X196126666Y-99092095D01*
X196174285Y-98996857D01*
X196174285Y-98806380D01*
X196126666Y-98711142D01*
X196031428Y-98663523D01*
X195936190Y-98663523D01*
X195840952Y-99139714D01*
X195507619Y-97663523D02*
X195983809Y-97996857D01*
X195507619Y-98234952D02*
X196507619Y-98234952D01*
X196507619Y-97854000D01*
X196460000Y-97758761D01*
X196412380Y-97711142D01*
X196317142Y-97663523D01*
X196174285Y-97663523D01*
X196079047Y-97711142D01*
X196031428Y-97758761D01*
X195983809Y-97854000D01*
X195983809Y-98234952D01*
X195507619Y-96806380D02*
X196031428Y-96806380D01*
X196126666Y-96854000D01*
X196174285Y-96949238D01*
X196174285Y-97139714D01*
X196126666Y-97234952D01*
X195555238Y-96806380D02*
X195507619Y-96901619D01*
X195507619Y-97139714D01*
X195555238Y-97234952D01*
X195650476Y-97282571D01*
X195745714Y-97282571D01*
X195840952Y-97234952D01*
X195888571Y-97139714D01*
X195888571Y-96901619D01*
X195936190Y-96806380D01*
X195555238Y-95901619D02*
X195507619Y-95996857D01*
X195507619Y-96187333D01*
X195555238Y-96282571D01*
X195602857Y-96330190D01*
X195698095Y-96377809D01*
X195983809Y-96377809D01*
X196079047Y-96330190D01*
X196126666Y-96282571D01*
X196174285Y-96187333D01*
X196174285Y-95996857D01*
X196126666Y-95901619D01*
X195507619Y-95473047D02*
X196174285Y-95473047D01*
X196507619Y-95473047D02*
X196460000Y-95520666D01*
X196412380Y-95473047D01*
X196460000Y-95425428D01*
X196507619Y-95473047D01*
X196412380Y-95473047D01*
X196174285Y-94996857D02*
X195507619Y-94996857D01*
X196079047Y-94996857D02*
X196126666Y-94949238D01*
X196174285Y-94854000D01*
X196174285Y-94711142D01*
X196126666Y-94615904D01*
X196031428Y-94568285D01*
X195507619Y-94568285D01*
X196174285Y-93663523D02*
X195364761Y-93663523D01*
X195269523Y-93711142D01*
X195221904Y-93758761D01*
X195174285Y-93854000D01*
X195174285Y-93996857D01*
X195221904Y-94092095D01*
X195555238Y-93663523D02*
X195507619Y-93758761D01*
X195507619Y-93949238D01*
X195555238Y-94044476D01*
X195602857Y-94092095D01*
X195698095Y-94139714D01*
X195983809Y-94139714D01*
X196079047Y-94092095D01*
X196126666Y-94044476D01*
X196174285Y-93949238D01*
X196174285Y-93758761D01*
X196126666Y-93663523D01*
X194857619Y-110306380D02*
X194857619Y-109734952D01*
X193857619Y-110020666D02*
X194857619Y-110020666D01*
X193905238Y-109020666D02*
X193857619Y-109115904D01*
X193857619Y-109306380D01*
X193905238Y-109401619D01*
X194000476Y-109449238D01*
X194381428Y-109449238D01*
X194476666Y-109401619D01*
X194524285Y-109306380D01*
X194524285Y-109115904D01*
X194476666Y-109020666D01*
X194381428Y-108973047D01*
X194286190Y-108973047D01*
X194190952Y-109449238D01*
X193857619Y-108401619D02*
X193905238Y-108496857D01*
X194000476Y-108544476D01*
X194857619Y-108544476D01*
X193905238Y-107639714D02*
X193857619Y-107734952D01*
X193857619Y-107925428D01*
X193905238Y-108020666D01*
X194000476Y-108068285D01*
X194381428Y-108068285D01*
X194476666Y-108020666D01*
X194524285Y-107925428D01*
X194524285Y-107734952D01*
X194476666Y-107639714D01*
X194381428Y-107592095D01*
X194286190Y-107592095D01*
X194190952Y-108068285D01*
X193857619Y-107163523D02*
X194524285Y-107163523D01*
X194429047Y-107163523D02*
X194476666Y-107115904D01*
X194524285Y-107020666D01*
X194524285Y-106877809D01*
X194476666Y-106782571D01*
X194381428Y-106734952D01*
X193857619Y-106734952D01*
X194381428Y-106734952D02*
X194476666Y-106687333D01*
X194524285Y-106592095D01*
X194524285Y-106449238D01*
X194476666Y-106354000D01*
X194381428Y-106306380D01*
X193857619Y-106306380D01*
X193905238Y-105449238D02*
X193857619Y-105544476D01*
X193857619Y-105734952D01*
X193905238Y-105830190D01*
X194000476Y-105877809D01*
X194381428Y-105877809D01*
X194476666Y-105830190D01*
X194524285Y-105734952D01*
X194524285Y-105544476D01*
X194476666Y-105449238D01*
X194381428Y-105401619D01*
X194286190Y-105401619D01*
X194190952Y-105877809D01*
X194524285Y-105115904D02*
X194524285Y-104734952D01*
X194857619Y-104973047D02*
X194000476Y-104973047D01*
X193905238Y-104925428D01*
X193857619Y-104830190D01*
X193857619Y-104734952D01*
X193857619Y-104401619D02*
X194524285Y-104401619D01*
X194333809Y-104401619D02*
X194429047Y-104354000D01*
X194476666Y-104306380D01*
X194524285Y-104211142D01*
X194524285Y-104115904D01*
X194524285Y-103877809D02*
X193857619Y-103639714D01*
X194524285Y-103401619D02*
X193857619Y-103639714D01*
X193619523Y-103734952D01*
X193571904Y-103782571D01*
X193524285Y-103877809D01*
X193905238Y-102306380D02*
X193857619Y-102163523D01*
X193857619Y-101925428D01*
X193905238Y-101830190D01*
X193952857Y-101782571D01*
X194048095Y-101734952D01*
X194143333Y-101734952D01*
X194238571Y-101782571D01*
X194286190Y-101830190D01*
X194333809Y-101925428D01*
X194381428Y-102115904D01*
X194429047Y-102211142D01*
X194476666Y-102258761D01*
X194571904Y-102306380D01*
X194667142Y-102306380D01*
X194762380Y-102258761D01*
X194810000Y-102211142D01*
X194857619Y-102115904D01*
X194857619Y-101877809D01*
X194810000Y-101734952D01*
X194524285Y-101401619D02*
X193857619Y-101163523D01*
X194524285Y-100925428D02*
X193857619Y-101163523D01*
X193619523Y-101258761D01*
X193571904Y-101306380D01*
X193524285Y-101401619D01*
X193905238Y-100592095D02*
X193857619Y-100496857D01*
X193857619Y-100306380D01*
X193905238Y-100211142D01*
X194000476Y-100163523D01*
X194048095Y-100163523D01*
X194143333Y-100211142D01*
X194190952Y-100306380D01*
X194190952Y-100449238D01*
X194238571Y-100544476D01*
X194333809Y-100592095D01*
X194381428Y-100592095D01*
X194476666Y-100544476D01*
X194524285Y-100449238D01*
X194524285Y-100306380D01*
X194476666Y-100211142D01*
X194524285Y-99877809D02*
X194524285Y-99496857D01*
X194857619Y-99734952D02*
X194000476Y-99734952D01*
X193905238Y-99687333D01*
X193857619Y-99592095D01*
X193857619Y-99496857D01*
X193905238Y-98782571D02*
X193857619Y-98877809D01*
X193857619Y-99068285D01*
X193905238Y-99163523D01*
X194000476Y-99211142D01*
X194381428Y-99211142D01*
X194476666Y-99163523D01*
X194524285Y-99068285D01*
X194524285Y-98877809D01*
X194476666Y-98782571D01*
X194381428Y-98734952D01*
X194286190Y-98734952D01*
X194190952Y-99211142D01*
X193857619Y-98306380D02*
X194524285Y-98306380D01*
X194429047Y-98306380D02*
X194476666Y-98258761D01*
X194524285Y-98163523D01*
X194524285Y-98020666D01*
X194476666Y-97925428D01*
X194381428Y-97877809D01*
X193857619Y-97877809D01*
X194381428Y-97877809D02*
X194476666Y-97830190D01*
X194524285Y-97734952D01*
X194524285Y-97592095D01*
X194476666Y-97496857D01*
X194381428Y-97449238D01*
X193857619Y-97449238D01*
X194524285Y-96306380D02*
X193857619Y-96068285D01*
X194524285Y-95830190D01*
X194762380Y-95496857D02*
X194810000Y-95449238D01*
X194857619Y-95354000D01*
X194857619Y-95115904D01*
X194810000Y-95020666D01*
X194762380Y-94973047D01*
X194667142Y-94925428D01*
X194571904Y-94925428D01*
X194429047Y-94973047D01*
X193857619Y-95544476D01*
X193857619Y-94925428D01*
X193952857Y-94496857D02*
X193905238Y-94449238D01*
X193857619Y-94496857D01*
X193905238Y-94544476D01*
X193952857Y-94496857D01*
X193857619Y-94496857D01*
X194857619Y-93830190D02*
X194857619Y-93734952D01*
X194810000Y-93639714D01*
X194762380Y-93592095D01*
X194667142Y-93544476D01*
X194476666Y-93496857D01*
X194238571Y-93496857D01*
X194048095Y-93544476D01*
X193952857Y-93592095D01*
X193905238Y-93639714D01*
X193857619Y-93734952D01*
X193857619Y-93830190D01*
X193905238Y-93925428D01*
X193952857Y-93973047D01*
X194048095Y-94020666D01*
X194238571Y-94068285D01*
X194476666Y-94068285D01*
X194667142Y-94020666D01*
X194762380Y-93973047D01*
X194810000Y-93925428D01*
X194857619Y-93830190D01*
X192493333Y-110234952D02*
X192493333Y-109758761D01*
X192207619Y-110330190D02*
X193207619Y-109996857D01*
X192207619Y-109663523D01*
X192874285Y-108901619D02*
X192207619Y-108901619D01*
X192874285Y-109330190D02*
X192350476Y-109330190D01*
X192255238Y-109282571D01*
X192207619Y-109187333D01*
X192207619Y-109044476D01*
X192255238Y-108949238D01*
X192302857Y-108901619D01*
X192874285Y-108568285D02*
X192874285Y-108187333D01*
X193207619Y-108425428D02*
X192350476Y-108425428D01*
X192255238Y-108377809D01*
X192207619Y-108282571D01*
X192207619Y-108187333D01*
X192207619Y-107854000D02*
X193207619Y-107854000D01*
X192207619Y-107425428D02*
X192731428Y-107425428D01*
X192826666Y-107473047D01*
X192874285Y-107568285D01*
X192874285Y-107711142D01*
X192826666Y-107806380D01*
X192779047Y-107854000D01*
X192207619Y-106806380D02*
X192255238Y-106901619D01*
X192302857Y-106949238D01*
X192398095Y-106996857D01*
X192683809Y-106996857D01*
X192779047Y-106949238D01*
X192826666Y-106901619D01*
X192874285Y-106806380D01*
X192874285Y-106663523D01*
X192826666Y-106568285D01*
X192779047Y-106520666D01*
X192683809Y-106473047D01*
X192398095Y-106473047D01*
X192302857Y-106520666D01*
X192255238Y-106568285D01*
X192207619Y-106663523D01*
X192207619Y-106806380D01*
X192207619Y-106044476D02*
X192874285Y-106044476D01*
X192683809Y-106044476D02*
X192779047Y-105996857D01*
X192826666Y-105949238D01*
X192874285Y-105854000D01*
X192874285Y-105758761D01*
X192302857Y-105425428D02*
X192255238Y-105377809D01*
X192207619Y-105425428D01*
X192255238Y-105473047D01*
X192302857Y-105425428D01*
X192207619Y-105425428D01*
X192826666Y-105425428D02*
X192779047Y-105377809D01*
X192731428Y-105425428D01*
X192779047Y-105473047D01*
X192826666Y-105425428D01*
X192731428Y-105425428D01*
X192207619Y-104187333D02*
X193207619Y-104187333D01*
X193207619Y-103806380D01*
X193160000Y-103711142D01*
X193112380Y-103663523D01*
X193017142Y-103615904D01*
X192874285Y-103615904D01*
X192779047Y-103663523D01*
X192731428Y-103711142D01*
X192683809Y-103806380D01*
X192683809Y-104187333D01*
X192207619Y-102758761D02*
X192731428Y-102758761D01*
X192826666Y-102806380D01*
X192874285Y-102901619D01*
X192874285Y-103092095D01*
X192826666Y-103187333D01*
X192255238Y-102758761D02*
X192207619Y-102854000D01*
X192207619Y-103092095D01*
X192255238Y-103187333D01*
X192350476Y-103234952D01*
X192445714Y-103234952D01*
X192540952Y-103187333D01*
X192588571Y-103092095D01*
X192588571Y-102854000D01*
X192636190Y-102758761D01*
X192874285Y-102377809D02*
X192207619Y-102187333D01*
X192683809Y-101996857D01*
X192207619Y-101806380D01*
X192874285Y-101615904D01*
X192255238Y-100854000D02*
X192207619Y-100949238D01*
X192207619Y-101139714D01*
X192255238Y-101234952D01*
X192350476Y-101282571D01*
X192731428Y-101282571D01*
X192826666Y-101234952D01*
X192874285Y-101139714D01*
X192874285Y-100949238D01*
X192826666Y-100854000D01*
X192731428Y-100806380D01*
X192636190Y-100806380D01*
X192540952Y-101282571D01*
X192207619Y-100234952D02*
X192255238Y-100330190D01*
X192350476Y-100377809D01*
X193207619Y-100377809D01*
X192683809Y-100520666D02*
X192874285Y-100234952D01*
X192255238Y-99139714D02*
X192207619Y-98996857D01*
X192207619Y-98758761D01*
X192255238Y-98663523D01*
X192302857Y-98615904D01*
X192398095Y-98568285D01*
X192493333Y-98568285D01*
X192588571Y-98615904D01*
X192636190Y-98663523D01*
X192683809Y-98758761D01*
X192731428Y-98949238D01*
X192779047Y-99044476D01*
X192826666Y-99092095D01*
X192921904Y-99139714D01*
X193017142Y-99139714D01*
X193112380Y-99092095D01*
X193160000Y-99044476D01*
X193207619Y-98949238D01*
X193207619Y-98711142D01*
X193160000Y-98568285D01*
X192874285Y-98234952D02*
X192874285Y-97711142D01*
X192207619Y-98234952D01*
X192207619Y-97711142D01*
X192255238Y-96901619D02*
X192207619Y-96996857D01*
X192207619Y-97187333D01*
X192255238Y-97282571D01*
X192302857Y-97330190D01*
X192398095Y-97377809D01*
X192683809Y-97377809D01*
X192779047Y-97330190D01*
X192826666Y-97282571D01*
X192874285Y-97187333D01*
X192874285Y-96996857D01*
X192826666Y-96901619D01*
X192874285Y-96568285D02*
X192874285Y-96044476D01*
X192207619Y-96568285D01*
X192207619Y-96044476D01*
X192255238Y-95282571D02*
X192207619Y-95377809D01*
X192207619Y-95568285D01*
X192255238Y-95663523D01*
X192350476Y-95711142D01*
X192731428Y-95711142D01*
X192826666Y-95663523D01*
X192874285Y-95568285D01*
X192874285Y-95377809D01*
X192826666Y-95282571D01*
X192731428Y-95234952D01*
X192636190Y-95234952D01*
X192540952Y-95711142D01*
X192255238Y-94377809D02*
X192207619Y-94473047D01*
X192207619Y-94663523D01*
X192255238Y-94758761D01*
X192302857Y-94806380D01*
X192398095Y-94854000D01*
X192683809Y-94854000D01*
X192779047Y-94806380D01*
X192826666Y-94758761D01*
X192874285Y-94663523D01*
X192874285Y-94473047D01*
X192826666Y-94377809D01*
X192207619Y-93949238D02*
X193207619Y-93949238D01*
X192207619Y-93520666D02*
X192731428Y-93520666D01*
X192826666Y-93568285D01*
X192874285Y-93663523D01*
X192874285Y-93806380D01*
X192826666Y-93901619D01*
X192779047Y-93949238D01*
D11*
%TO.C,G\u002A\u002A\u002A*%
G36*
X192215863Y-115609786D02*
G01*
X192212678Y-115565430D01*
X192206077Y-115532116D01*
X192194999Y-115506632D01*
X192178388Y-115485763D01*
X192155183Y-115466298D01*
X192148520Y-115461480D01*
X192102339Y-115438717D01*
X192052854Y-115431440D01*
X192003776Y-115439082D01*
X191958816Y-115461076D01*
X191922325Y-115496008D01*
X191909360Y-115514970D01*
X191901360Y-115533747D01*
X191896843Y-115557864D01*
X191894327Y-115592844D01*
X191893925Y-115601825D01*
X191890850Y-115674447D01*
X191739344Y-115679483D01*
X191736737Y-115734224D01*
X191734129Y-115788965D01*
X192120344Y-115788965D01*
X192120344Y-115675103D01*
X191988965Y-115675103D01*
X191988965Y-115626931D01*
X191990984Y-115593762D01*
X191998029Y-115572177D01*
X192006482Y-115561241D01*
X192031847Y-115546969D01*
X192062828Y-115544207D01*
X192091835Y-115552956D01*
X192102827Y-115561241D01*
X192114155Y-115578120D01*
X192119442Y-115602783D01*
X192120344Y-115626931D01*
X192120344Y-115675103D01*
X192120344Y-115788965D01*
X192216689Y-115788965D01*
X192216689Y-115668398D01*
X192215863Y-115609786D01*
G37*
X192215863Y-115609786D02*
X192212678Y-115565430D01*
X192206077Y-115532116D01*
X192194999Y-115506632D01*
X192178388Y-115485763D01*
X192155183Y-115466298D01*
X192148520Y-115461480D01*
X192102339Y-115438717D01*
X192052854Y-115431440D01*
X192003776Y-115439082D01*
X191958816Y-115461076D01*
X191922325Y-115496008D01*
X191909360Y-115514970D01*
X191901360Y-115533747D01*
X191896843Y-115557864D01*
X191894327Y-115592844D01*
X191893925Y-115601825D01*
X191890850Y-115674447D01*
X191739344Y-115679483D01*
X191736737Y-115734224D01*
X191734129Y-115788965D01*
X192120344Y-115788965D01*
X192120344Y-115675103D01*
X191988965Y-115675103D01*
X191988965Y-115626931D01*
X191990984Y-115593762D01*
X191998029Y-115572177D01*
X192006482Y-115561241D01*
X192031847Y-115546969D01*
X192062828Y-115544207D01*
X192091835Y-115552956D01*
X192102827Y-115561241D01*
X192114155Y-115578120D01*
X192119442Y-115602783D01*
X192120344Y-115626931D01*
X192120344Y-115675103D01*
X192120344Y-115788965D01*
X192216689Y-115788965D01*
X192216689Y-115668398D01*
X192215863Y-115609786D01*
G36*
X192214400Y-115132240D02*
G01*
X192197400Y-115078006D01*
X192190435Y-115064682D01*
X192153031Y-115015786D01*
X192105830Y-114979458D01*
X192051647Y-114956105D01*
X191993295Y-114946136D01*
X191933589Y-114949960D01*
X191875343Y-114967986D01*
X191821370Y-115000621D01*
X191810642Y-115009544D01*
X191772632Y-115053470D01*
X191747749Y-115104992D01*
X191736811Y-115160410D01*
X191740640Y-115216027D01*
X191755315Y-115259069D01*
X191790296Y-115312619D01*
X191835537Y-115353812D01*
X191888362Y-115382108D01*
X191946098Y-115396961D01*
X191980207Y-115397455D01*
X191980207Y-115283795D01*
X191928946Y-115277535D01*
X191887739Y-115259683D01*
X191858320Y-115231628D01*
X191842421Y-115194759D01*
X191840069Y-115171483D01*
X191846899Y-115131569D01*
X191858359Y-115111179D01*
X191889562Y-115082542D01*
X191929438Y-115066553D01*
X191976258Y-115062000D01*
X192029393Y-115068051D01*
X192071617Y-115085738D01*
X192101337Y-115114357D01*
X192103829Y-115118230D01*
X192118478Y-115157418D01*
X192115784Y-115197448D01*
X192103182Y-115225799D01*
X192073664Y-115258030D01*
X192032379Y-115277402D01*
X191980207Y-115283795D01*
X191980207Y-115397455D01*
X192006069Y-115397830D01*
X192065600Y-115384171D01*
X192122016Y-115355441D01*
X192144861Y-115338141D01*
X192181559Y-115296230D01*
X192205820Y-115245306D01*
X192216987Y-115189325D01*
X192214400Y-115132240D01*
G37*
X192214400Y-115132240D02*
X192197400Y-115078006D01*
X192190435Y-115064682D01*
X192153031Y-115015786D01*
X192105830Y-114979458D01*
X192051647Y-114956105D01*
X191993295Y-114946136D01*
X191933589Y-114949960D01*
X191875343Y-114967986D01*
X191821370Y-115000621D01*
X191810642Y-115009544D01*
X191772632Y-115053470D01*
X191747749Y-115104992D01*
X191736811Y-115160410D01*
X191740640Y-115216027D01*
X191755315Y-115259069D01*
X191790296Y-115312619D01*
X191835537Y-115353812D01*
X191888362Y-115382108D01*
X191946098Y-115396961D01*
X191980207Y-115397455D01*
X191980207Y-115283795D01*
X191928946Y-115277535D01*
X191887739Y-115259683D01*
X191858320Y-115231628D01*
X191842421Y-115194759D01*
X191840069Y-115171483D01*
X191846899Y-115131569D01*
X191858359Y-115111179D01*
X191889562Y-115082542D01*
X191929438Y-115066553D01*
X191976258Y-115062000D01*
X192029393Y-115068051D01*
X192071617Y-115085738D01*
X192101337Y-115114357D01*
X192103829Y-115118230D01*
X192118478Y-115157418D01*
X192115784Y-115197448D01*
X192103182Y-115225799D01*
X192073664Y-115258030D01*
X192032379Y-115277402D01*
X191980207Y-115283795D01*
X191980207Y-115397455D01*
X192006069Y-115397830D01*
X192065600Y-115384171D01*
X192122016Y-115355441D01*
X192144861Y-115338141D01*
X192181559Y-115296230D01*
X192205820Y-115245306D01*
X192216987Y-115189325D01*
X192214400Y-115132240D01*
G36*
X191840069Y-114772965D02*
G01*
X191840069Y-114535609D01*
X191789707Y-114538235D01*
X191739344Y-114540862D01*
X191736966Y-114709465D01*
X191734587Y-114878069D01*
X192216689Y-114878069D01*
X192216689Y-114772965D01*
X191840069Y-114772965D01*
G37*
X191840069Y-114772965D02*
X191840069Y-114535609D01*
X191789707Y-114538235D01*
X191739344Y-114540862D01*
X191736966Y-114709465D01*
X191734587Y-114878069D01*
X192216689Y-114878069D01*
X192216689Y-114772965D01*
X191840069Y-114772965D01*
G36*
X192211606Y-114248531D02*
G01*
X192195700Y-114201944D01*
X192182169Y-114173134D01*
X192171002Y-114158611D01*
X192157600Y-114156588D01*
X192137363Y-114165277D01*
X192122488Y-114173505D01*
X192078819Y-114198053D01*
X192099496Y-114242457D01*
X192112663Y-114279448D01*
X192119335Y-114316997D01*
X192118920Y-114349447D01*
X192112691Y-114368581D01*
X192099033Y-114376341D01*
X192079980Y-114377339D01*
X192068307Y-114374974D01*
X192059299Y-114368930D01*
X192051132Y-114356126D01*
X192041982Y-114333477D01*
X192030027Y-114297902D01*
X192026461Y-114286862D01*
X192011118Y-114242292D01*
X191997472Y-114210746D01*
X191983461Y-114188143D01*
X191968047Y-114171340D01*
X191929182Y-114145902D01*
X191886978Y-114135654D01*
X191844695Y-114139559D01*
X191805592Y-114156580D01*
X191772932Y-114185681D01*
X191749973Y-114225825D01*
X191744828Y-114242312D01*
X191736768Y-114298611D01*
X191737937Y-114359900D01*
X191747470Y-114413862D01*
X191756352Y-114440741D01*
X191768338Y-114470868D01*
X191780715Y-114497942D01*
X191790771Y-114515664D01*
X191791967Y-114517192D01*
X191800311Y-114515048D01*
X191819761Y-114506848D01*
X191841600Y-114496546D01*
X191889012Y-114473293D01*
X191866730Y-114428290D01*
X191853590Y-114393411D01*
X191845671Y-114355169D01*
X191843167Y-114318120D01*
X191846271Y-114286818D01*
X191855176Y-114265817D01*
X191859654Y-114261772D01*
X191877423Y-114259110D01*
X191894928Y-114273821D01*
X191912059Y-114305764D01*
X191926784Y-114348172D01*
X191945593Y-114402507D01*
X191966163Y-114442296D01*
X191990285Y-114470513D01*
X192008592Y-114483978D01*
X192048852Y-114499284D01*
X192090527Y-114499196D01*
X192130758Y-114485308D01*
X192166685Y-114459212D01*
X192195446Y-114422504D01*
X192214182Y-114376775D01*
X192216137Y-114368351D01*
X192220488Y-114310106D01*
X192211606Y-114248531D01*
G37*
X192211606Y-114248531D02*
X192195700Y-114201944D01*
X192182169Y-114173134D01*
X192171002Y-114158611D01*
X192157600Y-114156588D01*
X192137363Y-114165277D01*
X192122488Y-114173505D01*
X192078819Y-114198053D01*
X192099496Y-114242457D01*
X192112663Y-114279448D01*
X192119335Y-114316997D01*
X192118920Y-114349447D01*
X192112691Y-114368581D01*
X192099033Y-114376341D01*
X192079980Y-114377339D01*
X192068307Y-114374974D01*
X192059299Y-114368930D01*
X192051132Y-114356126D01*
X192041982Y-114333477D01*
X192030027Y-114297902D01*
X192026461Y-114286862D01*
X192011118Y-114242292D01*
X191997472Y-114210746D01*
X191983461Y-114188143D01*
X191968047Y-114171340D01*
X191929182Y-114145902D01*
X191886978Y-114135654D01*
X191844695Y-114139559D01*
X191805592Y-114156580D01*
X191772932Y-114185681D01*
X191749973Y-114225825D01*
X191744828Y-114242312D01*
X191736768Y-114298611D01*
X191737937Y-114359900D01*
X191747470Y-114413862D01*
X191756352Y-114440741D01*
X191768338Y-114470868D01*
X191780715Y-114497942D01*
X191790771Y-114515664D01*
X191791967Y-114517192D01*
X191800311Y-114515048D01*
X191819761Y-114506848D01*
X191841600Y-114496546D01*
X191889012Y-114473293D01*
X191866730Y-114428290D01*
X191853590Y-114393411D01*
X191845671Y-114355169D01*
X191843167Y-114318120D01*
X191846271Y-114286818D01*
X191855176Y-114265817D01*
X191859654Y-114261772D01*
X191877423Y-114259110D01*
X191894928Y-114273821D01*
X191912059Y-114305764D01*
X191926784Y-114348172D01*
X191945593Y-114402507D01*
X191966163Y-114442296D01*
X191990285Y-114470513D01*
X192008592Y-114483978D01*
X192048852Y-114499284D01*
X192090527Y-114499196D01*
X192130758Y-114485308D01*
X192166685Y-114459212D01*
X192195446Y-114422504D01*
X192214182Y-114376775D01*
X192216137Y-114368351D01*
X192220488Y-114310106D01*
X192211606Y-114248531D01*
G36*
X191840069Y-113958414D02*
G01*
X191840069Y-113730690D01*
X191734965Y-113730690D01*
X191734965Y-114072276D01*
X192216689Y-114072276D01*
X192216689Y-113958414D01*
X191840069Y-113958414D01*
G37*
X191840069Y-113958414D02*
X191840069Y-113730690D01*
X191734965Y-113730690D01*
X191734965Y-114072276D01*
X192216689Y-114072276D01*
X192216689Y-113958414D01*
X191840069Y-113958414D01*
G36*
X192215657Y-113178279D02*
G01*
X192211905Y-113131133D01*
X192204456Y-113095423D01*
X192192328Y-113068152D01*
X192174542Y-113046322D01*
X192150118Y-113026935D01*
X192146232Y-113024324D01*
X192104919Y-113005326D01*
X192059316Y-112997870D01*
X192013821Y-113001421D01*
X191972836Y-113015442D01*
X191940761Y-113039396D01*
X191932194Y-113050424D01*
X191917738Y-113072486D01*
X191835360Y-113020588D01*
X191801381Y-112999665D01*
X191772493Y-112982779D01*
X191752085Y-112971853D01*
X191743974Y-112968690D01*
X191739078Y-112976795D01*
X191735882Y-112998563D01*
X191734965Y-113024263D01*
X191735304Y-113050564D01*
X191737937Y-113069862D01*
X191745293Y-113085265D01*
X191759797Y-113099880D01*
X191783877Y-113116813D01*
X191819960Y-113139171D01*
X191829045Y-113144697D01*
X191859832Y-113163767D01*
X191878590Y-113177372D01*
X191888306Y-113189077D01*
X191891963Y-113202444D01*
X191892545Y-113220500D01*
X191892620Y-113257724D01*
X191734965Y-113257724D01*
X191734965Y-113362828D01*
X192120344Y-113362828D01*
X192120344Y-113257724D01*
X191988965Y-113257724D01*
X191988965Y-113200793D01*
X191990210Y-113166415D01*
X191994755Y-113144265D01*
X192003814Y-113129177D01*
X192006482Y-113126345D01*
X192031743Y-113112127D01*
X192054655Y-113108828D01*
X192085243Y-113113521D01*
X192105489Y-113128856D01*
X192116740Y-113156718D01*
X192120340Y-113198990D01*
X192120344Y-113200793D01*
X192120344Y-113257724D01*
X192120344Y-113362828D01*
X192216689Y-113362828D01*
X192216689Y-113239858D01*
X192215657Y-113178279D01*
G37*
X192215657Y-113178279D02*
X192211905Y-113131133D01*
X192204456Y-113095423D01*
X192192328Y-113068152D01*
X192174542Y-113046322D01*
X192150118Y-113026935D01*
X192146232Y-113024324D01*
X192104919Y-113005326D01*
X192059316Y-112997870D01*
X192013821Y-113001421D01*
X191972836Y-113015442D01*
X191940761Y-113039396D01*
X191932194Y-113050424D01*
X191917738Y-113072486D01*
X191835360Y-113020588D01*
X191801381Y-112999665D01*
X191772493Y-112982779D01*
X191752085Y-112971853D01*
X191743974Y-112968690D01*
X191739078Y-112976795D01*
X191735882Y-112998563D01*
X191734965Y-113024263D01*
X191735304Y-113050564D01*
X191737937Y-113069862D01*
X191745293Y-113085265D01*
X191759797Y-113099880D01*
X191783877Y-113116813D01*
X191819960Y-113139171D01*
X191829045Y-113144697D01*
X191859832Y-113163767D01*
X191878590Y-113177372D01*
X191888306Y-113189077D01*
X191891963Y-113202444D01*
X191892545Y-113220500D01*
X191892620Y-113257724D01*
X191734965Y-113257724D01*
X191734965Y-113362828D01*
X192120344Y-113362828D01*
X192120344Y-113257724D01*
X191988965Y-113257724D01*
X191988965Y-113200793D01*
X191990210Y-113166415D01*
X191994755Y-113144265D01*
X192003814Y-113129177D01*
X192006482Y-113126345D01*
X192031743Y-113112127D01*
X192054655Y-113108828D01*
X192085243Y-113113521D01*
X192105489Y-113128856D01*
X192116740Y-113156718D01*
X192120340Y-113198990D01*
X192120344Y-113200793D01*
X192120344Y-113257724D01*
X192120344Y-113362828D01*
X192216689Y-113362828D01*
X192216689Y-113239858D01*
X192215657Y-113178279D01*
G36*
X191984748Y-112593441D02*
G01*
X191924543Y-112570467D01*
X191869524Y-112549694D01*
X191821852Y-112531920D01*
X191783684Y-112517943D01*
X191757181Y-112508560D01*
X191744500Y-112504568D01*
X191743886Y-112504483D01*
X191739101Y-112512565D01*
X191735925Y-112534160D01*
X191734965Y-112560452D01*
X191734965Y-112616422D01*
X191791896Y-112636520D01*
X191848827Y-112656619D01*
X191848827Y-112800868D01*
X191802844Y-112815869D01*
X191775118Y-112825800D01*
X191753555Y-112835109D01*
X191745913Y-112839542D01*
X191739554Y-112852322D01*
X191735815Y-112874814D01*
X191734690Y-112901475D01*
X191736177Y-112926762D01*
X191740269Y-112945132D01*
X191746002Y-112951172D01*
X191753878Y-112949488D01*
X191770564Y-112944167D01*
X191797133Y-112934811D01*
X191834656Y-112921021D01*
X191884208Y-112902398D01*
X191927655Y-112885855D01*
X191927655Y-112783815D01*
X191927655Y-112731735D01*
X191928657Y-112704194D01*
X191931261Y-112685385D01*
X191934224Y-112679833D01*
X191944948Y-112682404D01*
X191968302Y-112689157D01*
X192000241Y-112698901D01*
X192019620Y-112704982D01*
X192098448Y-112729954D01*
X192063018Y-112739694D01*
X192034149Y-112748240D01*
X191998701Y-112759547D01*
X191977621Y-112766624D01*
X191927655Y-112783815D01*
X191927655Y-112885855D01*
X191946860Y-112878542D01*
X192023685Y-112849053D01*
X192113775Y-112814299D01*
X192216689Y-112774527D01*
X192216689Y-112682400D01*
X191984748Y-112593441D01*
G37*
X191984748Y-112593441D02*
X191924543Y-112570467D01*
X191869524Y-112549694D01*
X191821852Y-112531920D01*
X191783684Y-112517943D01*
X191757181Y-112508560D01*
X191744500Y-112504568D01*
X191743886Y-112504483D01*
X191739101Y-112512565D01*
X191735925Y-112534160D01*
X191734965Y-112560452D01*
X191734965Y-112616422D01*
X191791896Y-112636520D01*
X191848827Y-112656619D01*
X191848827Y-112800868D01*
X191802844Y-112815869D01*
X191775118Y-112825800D01*
X191753555Y-112835109D01*
X191745913Y-112839542D01*
X191739554Y-112852322D01*
X191735815Y-112874814D01*
X191734690Y-112901475D01*
X191736177Y-112926762D01*
X191740269Y-112945132D01*
X191746002Y-112951172D01*
X191753878Y-112949488D01*
X191770564Y-112944167D01*
X191797133Y-112934811D01*
X191834656Y-112921021D01*
X191884208Y-112902398D01*
X191927655Y-112885855D01*
X191927655Y-112783815D01*
X191927655Y-112731735D01*
X191928657Y-112704194D01*
X191931261Y-112685385D01*
X191934224Y-112679833D01*
X191944948Y-112682404D01*
X191968302Y-112689157D01*
X192000241Y-112698901D01*
X192019620Y-112704982D01*
X192098448Y-112729954D01*
X192063018Y-112739694D01*
X192034149Y-112748240D01*
X191998701Y-112759547D01*
X191977621Y-112766624D01*
X191927655Y-112783815D01*
X191927655Y-112885855D01*
X191946860Y-112878542D01*
X192023685Y-112849053D01*
X192113775Y-112814299D01*
X192216689Y-112774527D01*
X192216689Y-112682400D01*
X191984748Y-112593441D01*
G36*
X192215201Y-112222072D02*
G01*
X192207957Y-112181272D01*
X192202071Y-112165394D01*
X192189589Y-112144960D01*
X192171300Y-112121408D01*
X192151125Y-112099065D01*
X192132981Y-112082261D01*
X192120790Y-112075321D01*
X192120486Y-112075310D01*
X192112559Y-112081852D01*
X192098271Y-112098749D01*
X192085599Y-112115631D01*
X192056643Y-112155952D01*
X192078910Y-112174752D01*
X192107007Y-112207843D01*
X192119535Y-112244115D01*
X192117356Y-112280682D01*
X192101333Y-112314653D01*
X192072329Y-112343140D01*
X192031206Y-112363256D01*
X192021810Y-112365966D01*
X191987671Y-112372118D01*
X191956938Y-112369946D01*
X191940022Y-112365989D01*
X191893805Y-112348683D01*
X191862806Y-112324597D01*
X191845426Y-112291865D01*
X191840069Y-112249195D01*
X191843097Y-112222431D01*
X191854712Y-112200613D01*
X191869316Y-112184449D01*
X191898563Y-112155202D01*
X191872972Y-112110877D01*
X191858701Y-112087143D01*
X191847942Y-112071057D01*
X191843750Y-112066552D01*
X191835781Y-112071921D01*
X191819193Y-112085716D01*
X191805434Y-112097888D01*
X191770793Y-112140307D01*
X191747587Y-112192222D01*
X191737044Y-112248891D01*
X191740392Y-112305572D01*
X191745973Y-112327427D01*
X191767703Y-112369683D01*
X191802959Y-112409362D01*
X191847754Y-112443512D01*
X191898102Y-112469180D01*
X191950015Y-112483414D01*
X191957980Y-112484410D01*
X192016966Y-112482522D01*
X192074440Y-112466143D01*
X192126686Y-112437317D01*
X192169987Y-112398086D01*
X192200302Y-112351207D01*
X192211306Y-112314090D01*
X192216295Y-112268695D01*
X192215201Y-112222072D01*
G37*
X192215201Y-112222072D02*
X192207957Y-112181272D01*
X192202071Y-112165394D01*
X192189589Y-112144960D01*
X192171300Y-112121408D01*
X192151125Y-112099065D01*
X192132981Y-112082261D01*
X192120790Y-112075321D01*
X192120486Y-112075310D01*
X192112559Y-112081852D01*
X192098271Y-112098749D01*
X192085599Y-112115631D01*
X192056643Y-112155952D01*
X192078910Y-112174752D01*
X192107007Y-112207843D01*
X192119535Y-112244115D01*
X192117356Y-112280682D01*
X192101333Y-112314653D01*
X192072329Y-112343140D01*
X192031206Y-112363256D01*
X192021810Y-112365966D01*
X191987671Y-112372118D01*
X191956938Y-112369946D01*
X191940022Y-112365989D01*
X191893805Y-112348683D01*
X191862806Y-112324597D01*
X191845426Y-112291865D01*
X191840069Y-112249195D01*
X191843097Y-112222431D01*
X191854712Y-112200613D01*
X191869316Y-112184449D01*
X191898563Y-112155202D01*
X191872972Y-112110877D01*
X191858701Y-112087143D01*
X191847942Y-112071057D01*
X191843750Y-112066552D01*
X191835781Y-112071921D01*
X191819193Y-112085716D01*
X191805434Y-112097888D01*
X191770793Y-112140307D01*
X191747587Y-112192222D01*
X191737044Y-112248891D01*
X191740392Y-112305572D01*
X191745973Y-112327427D01*
X191767703Y-112369683D01*
X191802959Y-112409362D01*
X191847754Y-112443512D01*
X191898102Y-112469180D01*
X191950015Y-112483414D01*
X191957980Y-112484410D01*
X192016966Y-112482522D01*
X192074440Y-112466143D01*
X192126686Y-112437317D01*
X192169987Y-112398086D01*
X192200302Y-112351207D01*
X192211306Y-112314090D01*
X192216295Y-112268695D01*
X192215201Y-112222072D01*
G36*
X191978017Y-111902187D02*
G01*
X191739344Y-111904517D01*
X191736773Y-111953037D01*
X191736394Y-111980869D01*
X191738142Y-112001172D01*
X191740422Y-112007779D01*
X191750500Y-112009427D01*
X191775751Y-112010912D01*
X191813831Y-112012172D01*
X191862395Y-112013147D01*
X191919099Y-112013776D01*
X191981599Y-112014000D01*
X192216689Y-112014000D01*
X192216689Y-111899856D01*
X191978017Y-111902187D01*
G37*
X191978017Y-111902187D02*
X191739344Y-111904517D01*
X191736773Y-111953037D01*
X191736394Y-111980869D01*
X191738142Y-112001172D01*
X191740422Y-112007779D01*
X191750500Y-112009427D01*
X191775751Y-112010912D01*
X191813831Y-112012172D01*
X191862395Y-112013147D01*
X191919099Y-112013776D01*
X191981599Y-112014000D01*
X192216689Y-112014000D01*
X192216689Y-111899856D01*
X191978017Y-111902187D01*
G36*
X192081458Y-111617494D02*
G01*
X191946226Y-111510379D01*
X192081458Y-111507967D01*
X192216689Y-111505555D01*
X192216689Y-111391856D01*
X191978017Y-111394187D01*
X191739344Y-111396517D01*
X191736708Y-111437316D01*
X191734071Y-111478114D01*
X191867741Y-111586212D01*
X192001410Y-111694310D01*
X191870377Y-111698690D01*
X191739344Y-111703069D01*
X191736737Y-111757810D01*
X191734129Y-111812552D01*
X192216689Y-111812552D01*
X192216689Y-111724609D01*
X192081458Y-111617494D01*
G37*
X192081458Y-111617494D02*
X191946226Y-111510379D01*
X192081458Y-111507967D01*
X192216689Y-111505555D01*
X192216689Y-111391856D01*
X191978017Y-111394187D01*
X191739344Y-111396517D01*
X191736708Y-111437316D01*
X191734071Y-111478114D01*
X191867741Y-111586212D01*
X192001410Y-111694310D01*
X191870377Y-111698690D01*
X191739344Y-111703069D01*
X191736737Y-111757810D01*
X191734129Y-111812552D01*
X192216689Y-111812552D01*
X192216689Y-111724609D01*
X192081458Y-111617494D01*
G36*
X192217386Y-111058199D02*
G01*
X192199380Y-111002809D01*
X192184599Y-110978851D01*
X192164573Y-110954344D01*
X192143486Y-110933632D01*
X192125521Y-110921055D01*
X192118813Y-110919172D01*
X192111828Y-110925690D01*
X192098179Y-110942543D01*
X192085352Y-110959838D01*
X192069248Y-110983077D01*
X192062576Y-110996728D01*
X192064229Y-111005199D01*
X192072216Y-111012253D01*
X192102230Y-111043430D01*
X192117632Y-111080213D01*
X192117934Y-111118985D01*
X192102646Y-111156131D01*
X192093348Y-111168276D01*
X192056391Y-111197790D01*
X192011422Y-111213711D01*
X191962172Y-111215443D01*
X191912376Y-111202390D01*
X191903905Y-111198551D01*
X191867864Y-111173422D01*
X191846851Y-111139607D01*
X191840069Y-111096075D01*
X191844971Y-111066486D01*
X191857559Y-111036913D01*
X191874651Y-111012931D01*
X191893068Y-111000113D01*
X191895118Y-110999608D01*
X191904101Y-111000603D01*
X191908638Y-111010599D01*
X191910095Y-111033373D01*
X191910138Y-111041151D01*
X191910138Y-111085586D01*
X191988965Y-111085586D01*
X191988965Y-110901174D01*
X191864155Y-110903604D01*
X191739344Y-110906034D01*
X191739344Y-110949828D01*
X191740352Y-110976374D01*
X191744588Y-110990075D01*
X191753872Y-110995547D01*
X191757645Y-110996235D01*
X191775946Y-110998850D01*
X191755455Y-111039323D01*
X191738712Y-111086764D01*
X191737916Y-111134050D01*
X191750769Y-111180061D01*
X191774431Y-111221679D01*
X191809745Y-111261754D01*
X191851310Y-111294731D01*
X191875103Y-111307934D01*
X191916843Y-111320914D01*
X191966448Y-111326833D01*
X192017491Y-111325710D01*
X192063550Y-111317565D01*
X192090153Y-111307292D01*
X192141541Y-111271225D01*
X192180966Y-111225474D01*
X192207419Y-111172848D01*
X192219895Y-111116154D01*
X192217386Y-111058199D01*
G37*
X192217386Y-111058199D02*
X192199380Y-111002809D01*
X192184599Y-110978851D01*
X192164573Y-110954344D01*
X192143486Y-110933632D01*
X192125521Y-110921055D01*
X192118813Y-110919172D01*
X192111828Y-110925690D01*
X192098179Y-110942543D01*
X192085352Y-110959838D01*
X192069248Y-110983077D01*
X192062576Y-110996728D01*
X192064229Y-111005199D01*
X192072216Y-111012253D01*
X192102230Y-111043430D01*
X192117632Y-111080213D01*
X192117934Y-111118985D01*
X192102646Y-111156131D01*
X192093348Y-111168276D01*
X192056391Y-111197790D01*
X192011422Y-111213711D01*
X191962172Y-111215443D01*
X191912376Y-111202390D01*
X191903905Y-111198551D01*
X191867864Y-111173422D01*
X191846851Y-111139607D01*
X191840069Y-111096075D01*
X191844971Y-111066486D01*
X191857559Y-111036913D01*
X191874651Y-111012931D01*
X191893068Y-111000113D01*
X191895118Y-110999608D01*
X191904101Y-111000603D01*
X191908638Y-111010599D01*
X191910095Y-111033373D01*
X191910138Y-111041151D01*
X191910138Y-111085586D01*
X191988965Y-111085586D01*
X191988965Y-110901174D01*
X191864155Y-110903604D01*
X191739344Y-110906034D01*
X191739344Y-110949828D01*
X191740352Y-110976374D01*
X191744588Y-110990075D01*
X191753872Y-110995547D01*
X191757645Y-110996235D01*
X191775946Y-110998850D01*
X191755455Y-111039323D01*
X191738712Y-111086764D01*
X191737916Y-111134050D01*
X191750769Y-111180061D01*
X191774431Y-111221679D01*
X191809745Y-111261754D01*
X191851310Y-111294731D01*
X191875103Y-111307934D01*
X191916843Y-111320914D01*
X191966448Y-111326833D01*
X192017491Y-111325710D01*
X192063550Y-111317565D01*
X192090153Y-111307292D01*
X192141541Y-111271225D01*
X192180966Y-111225474D01*
X192207419Y-111172848D01*
X192219895Y-111116154D01*
X192217386Y-111058199D01*
G36*
X196871314Y-112263108D02*
G01*
X196862735Y-112070727D01*
X196849597Y-111894091D01*
X196845098Y-111847586D01*
X196823792Y-111676132D01*
X196796339Y-111518357D01*
X196762899Y-111374865D01*
X196723633Y-111246259D01*
X196678702Y-111133143D01*
X196629637Y-111038420D01*
X196605786Y-111003066D01*
X196574461Y-110963103D01*
X196541283Y-110925560D01*
X196530916Y-110914930D01*
X196459463Y-110854094D01*
X196383931Y-110809970D01*
X196303463Y-110782314D01*
X196217204Y-110770881D01*
X196124297Y-110775427D01*
X196072303Y-110784183D01*
X195976725Y-110811504D01*
X195881601Y-110854086D01*
X195786812Y-110912098D01*
X195692238Y-110985705D01*
X195597759Y-111075074D01*
X195503257Y-111180371D01*
X195408612Y-111301763D01*
X195313704Y-111439416D01*
X195218414Y-111593497D01*
X195122623Y-111764172D01*
X195026211Y-111951608D01*
X194929058Y-112155970D01*
X194831046Y-112377426D01*
X194732055Y-112616142D01*
X194699769Y-112697172D01*
X194661691Y-112794371D01*
X194624987Y-112889667D01*
X194589038Y-112984810D01*
X194553227Y-113081550D01*
X194516935Y-113181636D01*
X194479544Y-113286819D01*
X194440436Y-113398848D01*
X194398992Y-113519473D01*
X194354594Y-113650444D01*
X194306624Y-113793510D01*
X194254464Y-113950422D01*
X194218259Y-114059942D01*
X194186410Y-114155877D01*
X194156817Y-114243858D01*
X194129905Y-114322680D01*
X194106098Y-114391137D01*
X194085823Y-114448025D01*
X194069503Y-114492139D01*
X194057565Y-114522274D01*
X194050432Y-114537226D01*
X194049462Y-114538440D01*
X194017265Y-114556624D01*
X193982594Y-114558247D01*
X193967860Y-114553771D01*
X193948121Y-114538936D01*
X193922106Y-114508521D01*
X193890153Y-114463168D01*
X193852595Y-114403520D01*
X193809768Y-114330219D01*
X193762008Y-114243906D01*
X193709648Y-114145225D01*
X193653026Y-114034818D01*
X193592475Y-113913326D01*
X193528331Y-113781392D01*
X193460929Y-113639659D01*
X193390605Y-113488769D01*
X193317693Y-113329363D01*
X193248070Y-113174517D01*
X193192109Y-113048124D01*
X193130741Y-112907825D01*
X193064980Y-112756014D01*
X192995839Y-112595085D01*
X192924332Y-112427429D01*
X192851473Y-112255442D01*
X192778274Y-112081515D01*
X192705751Y-111908043D01*
X192634915Y-111737417D01*
X192566781Y-111572032D01*
X192502362Y-111414280D01*
X192496926Y-111400897D01*
X192475368Y-111348215D01*
X192455672Y-111300884D01*
X192438889Y-111261364D01*
X192426070Y-111232117D01*
X192418266Y-111215603D01*
X192416708Y-111213024D01*
X192415329Y-111219909D01*
X192414049Y-111242744D01*
X192412891Y-111279964D01*
X192411879Y-111330004D01*
X192411037Y-111391295D01*
X192410388Y-111462274D01*
X192409957Y-111541373D01*
X192409766Y-111627026D01*
X192409769Y-111672852D01*
X192410159Y-112141000D01*
X192454184Y-112246103D01*
X192572587Y-112527066D01*
X192685540Y-112791582D01*
X192793126Y-113039824D01*
X192895428Y-113271967D01*
X192992529Y-113488183D01*
X193084514Y-113688646D01*
X193171465Y-113873529D01*
X193253466Y-114043006D01*
X193330600Y-114197251D01*
X193402950Y-114336436D01*
X193470600Y-114460735D01*
X193533634Y-114570322D01*
X193592134Y-114665369D01*
X193646184Y-114746051D01*
X193674950Y-114785568D01*
X193714687Y-114834610D01*
X193758862Y-114883013D01*
X193803768Y-114927095D01*
X193845700Y-114963175D01*
X193874579Y-114983786D01*
X193942029Y-115016789D01*
X194009598Y-115032650D01*
X194076012Y-115031690D01*
X194139996Y-115014230D01*
X194200276Y-114980588D01*
X194255578Y-114931085D01*
X194297182Y-114877587D01*
X194309862Y-114857900D01*
X194321918Y-114837539D01*
X194333850Y-114815173D01*
X194346159Y-114789473D01*
X194359346Y-114759106D01*
X194373910Y-114722744D01*
X194390353Y-114679054D01*
X194409174Y-114626707D01*
X194430875Y-114564373D01*
X194455957Y-114490719D01*
X194484918Y-114404416D01*
X194518261Y-114304134D01*
X194556485Y-114188541D01*
X194557278Y-114186138D01*
X194630787Y-113964775D01*
X194700031Y-113759112D01*
X194765460Y-113567977D01*
X194827520Y-113390197D01*
X194886660Y-113224600D01*
X194943326Y-113070015D01*
X194997968Y-112925269D01*
X195051033Y-112789190D01*
X195102968Y-112660606D01*
X195154222Y-112538346D01*
X195205243Y-112421236D01*
X195256477Y-112308105D01*
X195308373Y-112197782D01*
X195348714Y-112114724D01*
X195434465Y-111947116D01*
X195519352Y-111794386D01*
X195603161Y-111656788D01*
X195685679Y-111534577D01*
X195766692Y-111428008D01*
X195845987Y-111337334D01*
X195923350Y-111262811D01*
X195998570Y-111204692D01*
X196071431Y-111163232D01*
X196141721Y-111138685D01*
X196171658Y-111133323D01*
X196214070Y-111133571D01*
X196250446Y-111146888D01*
X196283420Y-111174780D01*
X196312538Y-111213861D01*
X196352488Y-111288142D01*
X196388073Y-111379023D01*
X196419285Y-111486139D01*
X196446116Y-111609125D01*
X196468558Y-111747613D01*
X196486601Y-111901239D01*
X196500237Y-112069636D01*
X196509457Y-112252438D01*
X196514254Y-112449279D01*
X196514618Y-112659793D01*
X196510540Y-112883615D01*
X196502013Y-113120378D01*
X196489028Y-113369716D01*
X196471576Y-113631263D01*
X196449648Y-113904653D01*
X196423237Y-114189521D01*
X196392333Y-114485499D01*
X196389604Y-114510207D01*
X196365037Y-114725209D01*
X196339205Y-114938955D01*
X196312659Y-115147098D01*
X196285949Y-115345291D01*
X196266486Y-115482414D01*
X196257455Y-115544589D01*
X196248903Y-115603574D01*
X196241269Y-115656320D01*
X196234995Y-115699782D01*
X196230521Y-115730912D01*
X196228801Y-115742983D01*
X196222311Y-115788965D01*
X196586447Y-115788965D01*
X196591284Y-115760500D01*
X196600705Y-115702130D01*
X196611778Y-115628516D01*
X196624222Y-115541821D01*
X196637753Y-115444212D01*
X196652090Y-115337852D01*
X196666949Y-115224909D01*
X196682050Y-115107545D01*
X196697108Y-114987927D01*
X196711843Y-114868220D01*
X196725971Y-114750589D01*
X196739210Y-114637198D01*
X196748636Y-114554000D01*
X196779648Y-114260570D01*
X196806390Y-113974754D01*
X196828829Y-113697454D01*
X196846934Y-113429574D01*
X196860672Y-113172019D01*
X196870012Y-112925691D01*
X196874920Y-112691494D01*
X196875365Y-112470332D01*
X196871314Y-112263108D01*
G37*
X196871314Y-112263108D02*
X196862735Y-112070727D01*
X196849597Y-111894091D01*
X196845098Y-111847586D01*
X196823792Y-111676132D01*
X196796339Y-111518357D01*
X196762899Y-111374865D01*
X196723633Y-111246259D01*
X196678702Y-111133143D01*
X196629637Y-111038420D01*
X196605786Y-111003066D01*
X196574461Y-110963103D01*
X196541283Y-110925560D01*
X196530916Y-110914930D01*
X196459463Y-110854094D01*
X196383931Y-110809970D01*
X196303463Y-110782314D01*
X196217204Y-110770881D01*
X196124297Y-110775427D01*
X196072303Y-110784183D01*
X195976725Y-110811504D01*
X195881601Y-110854086D01*
X195786812Y-110912098D01*
X195692238Y-110985705D01*
X195597759Y-111075074D01*
X195503257Y-111180371D01*
X195408612Y-111301763D01*
X195313704Y-111439416D01*
X195218414Y-111593497D01*
X195122623Y-111764172D01*
X195026211Y-111951608D01*
X194929058Y-112155970D01*
X194831046Y-112377426D01*
X194732055Y-112616142D01*
X194699769Y-112697172D01*
X194661691Y-112794371D01*
X194624987Y-112889667D01*
X194589038Y-112984810D01*
X194553227Y-113081550D01*
X194516935Y-113181636D01*
X194479544Y-113286819D01*
X194440436Y-113398848D01*
X194398992Y-113519473D01*
X194354594Y-113650444D01*
X194306624Y-113793510D01*
X194254464Y-113950422D01*
X194218259Y-114059942D01*
X194186410Y-114155877D01*
X194156817Y-114243858D01*
X194129905Y-114322680D01*
X194106098Y-114391137D01*
X194085823Y-114448025D01*
X194069503Y-114492139D01*
X194057565Y-114522274D01*
X194050432Y-114537226D01*
X194049462Y-114538440D01*
X194017265Y-114556624D01*
X193982594Y-114558247D01*
X193967860Y-114553771D01*
X193948121Y-114538936D01*
X193922106Y-114508521D01*
X193890153Y-114463168D01*
X193852595Y-114403520D01*
X193809768Y-114330219D01*
X193762008Y-114243906D01*
X193709648Y-114145225D01*
X193653026Y-114034818D01*
X193592475Y-113913326D01*
X193528331Y-113781392D01*
X193460929Y-113639659D01*
X193390605Y-113488769D01*
X193317693Y-113329363D01*
X193248070Y-113174517D01*
X193192109Y-113048124D01*
X193130741Y-112907825D01*
X193064980Y-112756014D01*
X192995839Y-112595085D01*
X192924332Y-112427429D01*
X192851473Y-112255442D01*
X192778274Y-112081515D01*
X192705751Y-111908043D01*
X192634915Y-111737417D01*
X192566781Y-111572032D01*
X192502362Y-111414280D01*
X192496926Y-111400897D01*
X192475368Y-111348215D01*
X192455672Y-111300884D01*
X192438889Y-111261364D01*
X192426070Y-111232117D01*
X192418266Y-111215603D01*
X192416708Y-111213024D01*
X192415329Y-111219909D01*
X192414049Y-111242744D01*
X192412891Y-111279964D01*
X192411879Y-111330004D01*
X192411037Y-111391295D01*
X192410388Y-111462274D01*
X192409957Y-111541373D01*
X192409766Y-111627026D01*
X192409769Y-111672852D01*
X192410159Y-112141000D01*
X192454184Y-112246103D01*
X192572587Y-112527066D01*
X192685540Y-112791582D01*
X192793126Y-113039824D01*
X192895428Y-113271967D01*
X192992529Y-113488183D01*
X193084514Y-113688646D01*
X193171465Y-113873529D01*
X193253466Y-114043006D01*
X193330600Y-114197251D01*
X193402950Y-114336436D01*
X193470600Y-114460735D01*
X193533634Y-114570322D01*
X193592134Y-114665369D01*
X193646184Y-114746051D01*
X193674950Y-114785568D01*
X193714687Y-114834610D01*
X193758862Y-114883013D01*
X193803768Y-114927095D01*
X193845700Y-114963175D01*
X193874579Y-114983786D01*
X193942029Y-115016789D01*
X194009598Y-115032650D01*
X194076012Y-115031690D01*
X194139996Y-115014230D01*
X194200276Y-114980588D01*
X194255578Y-114931085D01*
X194297182Y-114877587D01*
X194309862Y-114857900D01*
X194321918Y-114837539D01*
X194333850Y-114815173D01*
X194346159Y-114789473D01*
X194359346Y-114759106D01*
X194373910Y-114722744D01*
X194390353Y-114679054D01*
X194409174Y-114626707D01*
X194430875Y-114564373D01*
X194455957Y-114490719D01*
X194484918Y-114404416D01*
X194518261Y-114304134D01*
X194556485Y-114188541D01*
X194557278Y-114186138D01*
X194630787Y-113964775D01*
X194700031Y-113759112D01*
X194765460Y-113567977D01*
X194827520Y-113390197D01*
X194886660Y-113224600D01*
X194943326Y-113070015D01*
X194997968Y-112925269D01*
X195051033Y-112789190D01*
X195102968Y-112660606D01*
X195154222Y-112538346D01*
X195205243Y-112421236D01*
X195256477Y-112308105D01*
X195308373Y-112197782D01*
X195348714Y-112114724D01*
X195434465Y-111947116D01*
X195519352Y-111794386D01*
X195603161Y-111656788D01*
X195685679Y-111534577D01*
X195766692Y-111428008D01*
X195845987Y-111337334D01*
X195923350Y-111262811D01*
X195998570Y-111204692D01*
X196071431Y-111163232D01*
X196141721Y-111138685D01*
X196171658Y-111133323D01*
X196214070Y-111133571D01*
X196250446Y-111146888D01*
X196283420Y-111174780D01*
X196312538Y-111213861D01*
X196352488Y-111288142D01*
X196388073Y-111379023D01*
X196419285Y-111486139D01*
X196446116Y-111609125D01*
X196468558Y-111747613D01*
X196486601Y-111901239D01*
X196500237Y-112069636D01*
X196509457Y-112252438D01*
X196514254Y-112449279D01*
X196514618Y-112659793D01*
X196510540Y-112883615D01*
X196502013Y-113120378D01*
X196489028Y-113369716D01*
X196471576Y-113631263D01*
X196449648Y-113904653D01*
X196423237Y-114189521D01*
X196392333Y-114485499D01*
X196389604Y-114510207D01*
X196365037Y-114725209D01*
X196339205Y-114938955D01*
X196312659Y-115147098D01*
X196285949Y-115345291D01*
X196266486Y-115482414D01*
X196257455Y-115544589D01*
X196248903Y-115603574D01*
X196241269Y-115656320D01*
X196234995Y-115699782D01*
X196230521Y-115730912D01*
X196228801Y-115742983D01*
X196222311Y-115788965D01*
X196586447Y-115788965D01*
X196591284Y-115760500D01*
X196600705Y-115702130D01*
X196611778Y-115628516D01*
X196624222Y-115541821D01*
X196637753Y-115444212D01*
X196652090Y-115337852D01*
X196666949Y-115224909D01*
X196682050Y-115107545D01*
X196697108Y-114987927D01*
X196711843Y-114868220D01*
X196725971Y-114750589D01*
X196739210Y-114637198D01*
X196748636Y-114554000D01*
X196779648Y-114260570D01*
X196806390Y-113974754D01*
X196828829Y-113697454D01*
X196846934Y-113429574D01*
X196860672Y-113172019D01*
X196870012Y-112925691D01*
X196874920Y-112691494D01*
X196875365Y-112470332D01*
X196871314Y-112263108D01*
%TD*%
M02*
