%TF.GenerationSoftware,KiCad,Pcbnew,(5.1.8)-1*%
%TF.CreationDate,2021-03-07T23:02:04+01:00*%
%TF.ProjectId,Telemetry_receiver,54656c65-6d65-4747-9279-5f7265636569,rev?*%
%TF.SameCoordinates,Original*%
%TF.FileFunction,Legend,Top*%
%TF.FilePolarity,Positive*%
%FSLAX46Y46*%
G04 Gerber Fmt 4.6, Leading zero omitted, Abs format (unit mm)*
G04 Created by KiCad (PCBNEW (5.1.8)-1) date 2021-03-07 23:02:04*
%MOMM*%
%LPD*%
G01*
G04 APERTURE LIST*
%ADD10C,0.120000*%
%ADD11C,0.132190*%
%ADD12C,0.150000*%
%ADD13C,0.254000*%
G04 APERTURE END LIST*
D10*
%TO.C, *%
X207240833Y-97790000D02*
G75*
G03*
X207240833Y-97790000I-1500833J0D01*
G01*
X207240833Y-110236000D02*
G75*
G03*
X207240833Y-110236000I-1500833J0D01*
G01*
D11*
%TO.C,U1*%
X134718000Y-116384000D02*
X134718000Y-116384000D01*
X134586000Y-116384000D02*
X134586000Y-116384000D01*
X134718000Y-116384000D02*
G75*
G03*
X134586000Y-116384000I-66000J0D01*
G01*
X134586000Y-116384000D02*
G75*
G03*
X134718000Y-116384000I66000J0D01*
G01*
D10*
%TO.C,U2*%
X167640000Y-98806000D02*
X167640000Y-98806000D01*
X167640000Y-109474000D02*
X167640000Y-98806000D01*
X167310000Y-98230000D02*
X167310000Y-98230000D01*
X167310000Y-113680000D02*
X167310000Y-98230000D01*
X196510000Y-113680000D02*
X167310000Y-113680000D01*
X196510000Y-98230000D02*
X196510000Y-113680000D01*
X167310000Y-98230000D02*
X196510000Y-98230000D01*
X167894000Y-101600000D02*
X167894000Y-101600000D01*
X170180000Y-101600000D02*
X167894000Y-101600000D01*
X170180000Y-99314000D02*
X170180000Y-101600000D01*
X167640000Y-109474000D02*
X167640000Y-109474000D01*
X172974000Y-109474000D02*
X167640000Y-109474000D01*
X172974000Y-98806000D02*
X172974000Y-109474000D01*
X167640000Y-98806000D02*
X172974000Y-98806000D01*
%TO.C,C100nF1*%
X170441252Y-93245000D02*
X169918748Y-93245000D01*
X170441252Y-94715000D02*
X169918748Y-94715000D01*
%TO.C, *%
D12*
%TO.C,U1*%
D13*
X143847380Y-103907523D02*
X143847380Y-104935619D01*
X143907857Y-105056571D01*
X143968333Y-105117047D01*
X144089285Y-105177523D01*
X144331190Y-105177523D01*
X144452142Y-105117047D01*
X144512619Y-105056571D01*
X144573095Y-104935619D01*
X144573095Y-103907523D01*
X145843095Y-105177523D02*
X145117380Y-105177523D01*
X145480238Y-105177523D02*
X145480238Y-103907523D01*
X145359285Y-104088952D01*
X145238333Y-104209904D01*
X145117380Y-104270380D01*
D12*
X131353095Y-94795000D02*
X131257857Y-94747380D01*
X131115000Y-94747380D01*
X130972142Y-94795000D01*
X130876904Y-94890238D01*
X130829285Y-94985476D01*
X130781666Y-95175952D01*
X130781666Y-95318809D01*
X130829285Y-95509285D01*
X130876904Y-95604523D01*
X130972142Y-95699761D01*
X131115000Y-95747380D01*
X131210238Y-95747380D01*
X131353095Y-95699761D01*
X131400714Y-95652142D01*
X131400714Y-95318809D01*
X131210238Y-95318809D01*
X131829285Y-95747380D02*
X131829285Y-94747380D01*
X132400714Y-95747380D01*
X132400714Y-94747380D01*
X132876904Y-95747380D02*
X132876904Y-94747380D01*
X133115000Y-94747380D01*
X133257857Y-94795000D01*
X133353095Y-94890238D01*
X133400714Y-94985476D01*
X133448333Y-95175952D01*
X133448333Y-95318809D01*
X133400714Y-95509285D01*
X133353095Y-95604523D01*
X133257857Y-95699761D01*
X133115000Y-95747380D01*
X132876904Y-95747380D01*
X134488333Y-95652142D02*
X134440714Y-95699761D01*
X134297857Y-95747380D01*
X134202619Y-95747380D01*
X134059761Y-95699761D01*
X133964523Y-95604523D01*
X133916904Y-95509285D01*
X133869285Y-95318809D01*
X133869285Y-95175952D01*
X133916904Y-94985476D01*
X133964523Y-94890238D01*
X134059761Y-94795000D01*
X134202619Y-94747380D01*
X134297857Y-94747380D01*
X134440714Y-94795000D01*
X134488333Y-94842619D01*
X134964523Y-95747380D02*
X135155000Y-95747380D01*
X135250238Y-95699761D01*
X135297857Y-95652142D01*
X135393095Y-95509285D01*
X135440714Y-95318809D01*
X135440714Y-94937857D01*
X135393095Y-94842619D01*
X135345476Y-94795000D01*
X135250238Y-94747380D01*
X135059761Y-94747380D01*
X134964523Y-94795000D01*
X134916904Y-94842619D01*
X134869285Y-94937857D01*
X134869285Y-95175952D01*
X134916904Y-95271190D01*
X134964523Y-95318809D01*
X135059761Y-95366428D01*
X135250238Y-95366428D01*
X135345476Y-95318809D01*
X135393095Y-95271190D01*
X135440714Y-95175952D01*
X137028333Y-95652142D02*
X136980714Y-95699761D01*
X136837857Y-95747380D01*
X136742619Y-95747380D01*
X136599761Y-95699761D01*
X136504523Y-95604523D01*
X136456904Y-95509285D01*
X136409285Y-95318809D01*
X136409285Y-95175952D01*
X136456904Y-94985476D01*
X136504523Y-94890238D01*
X136599761Y-94795000D01*
X136742619Y-94747380D01*
X136837857Y-94747380D01*
X136980714Y-94795000D01*
X137028333Y-94842619D01*
X137599761Y-95175952D02*
X137504523Y-95128333D01*
X137456904Y-95080714D01*
X137409285Y-94985476D01*
X137409285Y-94937857D01*
X137456904Y-94842619D01*
X137504523Y-94795000D01*
X137599761Y-94747380D01*
X137790238Y-94747380D01*
X137885476Y-94795000D01*
X137933095Y-94842619D01*
X137980714Y-94937857D01*
X137980714Y-94985476D01*
X137933095Y-95080714D01*
X137885476Y-95128333D01*
X137790238Y-95175952D01*
X137599761Y-95175952D01*
X137504523Y-95223571D01*
X137456904Y-95271190D01*
X137409285Y-95366428D01*
X137409285Y-95556904D01*
X137456904Y-95652142D01*
X137504523Y-95699761D01*
X137599761Y-95747380D01*
X137790238Y-95747380D01*
X137885476Y-95699761D01*
X137933095Y-95652142D01*
X137980714Y-95556904D01*
X137980714Y-95366428D01*
X137933095Y-95271190D01*
X137885476Y-95223571D01*
X137790238Y-95175952D01*
X139568333Y-95652142D02*
X139520714Y-95699761D01*
X139377857Y-95747380D01*
X139282619Y-95747380D01*
X139139761Y-95699761D01*
X139044523Y-95604523D01*
X138996904Y-95509285D01*
X138949285Y-95318809D01*
X138949285Y-95175952D01*
X138996904Y-94985476D01*
X139044523Y-94890238D01*
X139139761Y-94795000D01*
X139282619Y-94747380D01*
X139377857Y-94747380D01*
X139520714Y-94795000D01*
X139568333Y-94842619D01*
X139901666Y-94747380D02*
X140568333Y-94747380D01*
X140139761Y-95747380D01*
X142108333Y-95652142D02*
X142060714Y-95699761D01*
X141917857Y-95747380D01*
X141822619Y-95747380D01*
X141679761Y-95699761D01*
X141584523Y-95604523D01*
X141536904Y-95509285D01*
X141489285Y-95318809D01*
X141489285Y-95175952D01*
X141536904Y-94985476D01*
X141584523Y-94890238D01*
X141679761Y-94795000D01*
X141822619Y-94747380D01*
X141917857Y-94747380D01*
X142060714Y-94795000D01*
X142108333Y-94842619D01*
X142965476Y-94747380D02*
X142775000Y-94747380D01*
X142679761Y-94795000D01*
X142632142Y-94842619D01*
X142536904Y-94985476D01*
X142489285Y-95175952D01*
X142489285Y-95556904D01*
X142536904Y-95652142D01*
X142584523Y-95699761D01*
X142679761Y-95747380D01*
X142870238Y-95747380D01*
X142965476Y-95699761D01*
X143013095Y-95652142D01*
X143060714Y-95556904D01*
X143060714Y-95318809D01*
X143013095Y-95223571D01*
X142965476Y-95175952D01*
X142870238Y-95128333D01*
X142679761Y-95128333D01*
X142584523Y-95175952D01*
X142536904Y-95223571D01*
X142489285Y-95318809D01*
X144648333Y-95652142D02*
X144600714Y-95699761D01*
X144457857Y-95747380D01*
X144362619Y-95747380D01*
X144219761Y-95699761D01*
X144124523Y-95604523D01*
X144076904Y-95509285D01*
X144029285Y-95318809D01*
X144029285Y-95175952D01*
X144076904Y-94985476D01*
X144124523Y-94890238D01*
X144219761Y-94795000D01*
X144362619Y-94747380D01*
X144457857Y-94747380D01*
X144600714Y-94795000D01*
X144648333Y-94842619D01*
X145553095Y-94747380D02*
X145076904Y-94747380D01*
X145029285Y-95223571D01*
X145076904Y-95175952D01*
X145172142Y-95128333D01*
X145410238Y-95128333D01*
X145505476Y-95175952D01*
X145553095Y-95223571D01*
X145600714Y-95318809D01*
X145600714Y-95556904D01*
X145553095Y-95652142D01*
X145505476Y-95699761D01*
X145410238Y-95747380D01*
X145172142Y-95747380D01*
X145076904Y-95699761D01*
X145029285Y-95652142D01*
X147188333Y-95652142D02*
X147140714Y-95699761D01*
X146997857Y-95747380D01*
X146902619Y-95747380D01*
X146759761Y-95699761D01*
X146664523Y-95604523D01*
X146616904Y-95509285D01*
X146569285Y-95318809D01*
X146569285Y-95175952D01*
X146616904Y-94985476D01*
X146664523Y-94890238D01*
X146759761Y-94795000D01*
X146902619Y-94747380D01*
X146997857Y-94747380D01*
X147140714Y-94795000D01*
X147188333Y-94842619D01*
X148045476Y-95080714D02*
X148045476Y-95747380D01*
X147807380Y-94699761D02*
X147569285Y-95414047D01*
X148188333Y-95414047D01*
X149728333Y-95652142D02*
X149680714Y-95699761D01*
X149537857Y-95747380D01*
X149442619Y-95747380D01*
X149299761Y-95699761D01*
X149204523Y-95604523D01*
X149156904Y-95509285D01*
X149109285Y-95318809D01*
X149109285Y-95175952D01*
X149156904Y-94985476D01*
X149204523Y-94890238D01*
X149299761Y-94795000D01*
X149442619Y-94747380D01*
X149537857Y-94747380D01*
X149680714Y-94795000D01*
X149728333Y-94842619D01*
X150061666Y-94747380D02*
X150680714Y-94747380D01*
X150347380Y-95128333D01*
X150490238Y-95128333D01*
X150585476Y-95175952D01*
X150633095Y-95223571D01*
X150680714Y-95318809D01*
X150680714Y-95556904D01*
X150633095Y-95652142D01*
X150585476Y-95699761D01*
X150490238Y-95747380D01*
X150204523Y-95747380D01*
X150109285Y-95699761D01*
X150061666Y-95652142D01*
X152268333Y-95652142D02*
X152220714Y-95699761D01*
X152077857Y-95747380D01*
X151982619Y-95747380D01*
X151839761Y-95699761D01*
X151744523Y-95604523D01*
X151696904Y-95509285D01*
X151649285Y-95318809D01*
X151649285Y-95175952D01*
X151696904Y-94985476D01*
X151744523Y-94890238D01*
X151839761Y-94795000D01*
X151982619Y-94747380D01*
X152077857Y-94747380D01*
X152220714Y-94795000D01*
X152268333Y-94842619D01*
X152649285Y-94842619D02*
X152696904Y-94795000D01*
X152792142Y-94747380D01*
X153030238Y-94747380D01*
X153125476Y-94795000D01*
X153173095Y-94842619D01*
X153220714Y-94937857D01*
X153220714Y-95033095D01*
X153173095Y-95175952D01*
X152601666Y-95747380D01*
X153220714Y-95747380D01*
X154808333Y-95652142D02*
X154760714Y-95699761D01*
X154617857Y-95747380D01*
X154522619Y-95747380D01*
X154379761Y-95699761D01*
X154284523Y-95604523D01*
X154236904Y-95509285D01*
X154189285Y-95318809D01*
X154189285Y-95175952D01*
X154236904Y-94985476D01*
X154284523Y-94890238D01*
X154379761Y-94795000D01*
X154522619Y-94747380D01*
X154617857Y-94747380D01*
X154760714Y-94795000D01*
X154808333Y-94842619D01*
X155760714Y-95747380D02*
X155189285Y-95747380D01*
X155475000Y-95747380D02*
X155475000Y-94747380D01*
X155379761Y-94890238D01*
X155284523Y-94985476D01*
X155189285Y-95033095D01*
X157348333Y-95652142D02*
X157300714Y-95699761D01*
X157157857Y-95747380D01*
X157062619Y-95747380D01*
X156919761Y-95699761D01*
X156824523Y-95604523D01*
X156776904Y-95509285D01*
X156729285Y-95318809D01*
X156729285Y-95175952D01*
X156776904Y-94985476D01*
X156824523Y-94890238D01*
X156919761Y-94795000D01*
X157062619Y-94747380D01*
X157157857Y-94747380D01*
X157300714Y-94795000D01*
X157348333Y-94842619D01*
X157967380Y-94747380D02*
X158062619Y-94747380D01*
X158157857Y-94795000D01*
X158205476Y-94842619D01*
X158253095Y-94937857D01*
X158300714Y-95128333D01*
X158300714Y-95366428D01*
X158253095Y-95556904D01*
X158205476Y-95652142D01*
X158157857Y-95699761D01*
X158062619Y-95747380D01*
X157967380Y-95747380D01*
X157872142Y-95699761D01*
X157824523Y-95652142D01*
X157776904Y-95556904D01*
X157729285Y-95366428D01*
X157729285Y-95128333D01*
X157776904Y-94937857D01*
X157824523Y-94842619D01*
X157872142Y-94795000D01*
X157967380Y-94747380D01*
X156776904Y-113527380D02*
X156776904Y-112527380D01*
X157015000Y-112527380D01*
X157157857Y-112575000D01*
X157253095Y-112670238D01*
X157300714Y-112765476D01*
X157348333Y-112955952D01*
X157348333Y-113098809D01*
X157300714Y-113289285D01*
X157253095Y-113384523D01*
X157157857Y-113479761D01*
X157015000Y-113527380D01*
X156776904Y-113527380D01*
X157681666Y-112527380D02*
X158348333Y-112527380D01*
X157919761Y-113527380D01*
X154236904Y-113527380D02*
X154236904Y-112527380D01*
X154475000Y-112527380D01*
X154617857Y-112575000D01*
X154713095Y-112670238D01*
X154760714Y-112765476D01*
X154808333Y-112955952D01*
X154808333Y-113098809D01*
X154760714Y-113289285D01*
X154713095Y-113384523D01*
X154617857Y-113479761D01*
X154475000Y-113527380D01*
X154236904Y-113527380D01*
X155665476Y-112527380D02*
X155475000Y-112527380D01*
X155379761Y-112575000D01*
X155332142Y-112622619D01*
X155236904Y-112765476D01*
X155189285Y-112955952D01*
X155189285Y-113336904D01*
X155236904Y-113432142D01*
X155284523Y-113479761D01*
X155379761Y-113527380D01*
X155570238Y-113527380D01*
X155665476Y-113479761D01*
X155713095Y-113432142D01*
X155760714Y-113336904D01*
X155760714Y-113098809D01*
X155713095Y-113003571D01*
X155665476Y-112955952D01*
X155570238Y-112908333D01*
X155379761Y-112908333D01*
X155284523Y-112955952D01*
X155236904Y-113003571D01*
X155189285Y-113098809D01*
X151696904Y-113527380D02*
X151696904Y-112527380D01*
X151935000Y-112527380D01*
X152077857Y-112575000D01*
X152173095Y-112670238D01*
X152220714Y-112765476D01*
X152268333Y-112955952D01*
X152268333Y-113098809D01*
X152220714Y-113289285D01*
X152173095Y-113384523D01*
X152077857Y-113479761D01*
X151935000Y-113527380D01*
X151696904Y-113527380D01*
X153173095Y-112527380D02*
X152696904Y-112527380D01*
X152649285Y-113003571D01*
X152696904Y-112955952D01*
X152792142Y-112908333D01*
X153030238Y-112908333D01*
X153125476Y-112955952D01*
X153173095Y-113003571D01*
X153220714Y-113098809D01*
X153220714Y-113336904D01*
X153173095Y-113432142D01*
X153125476Y-113479761D01*
X153030238Y-113527380D01*
X152792142Y-113527380D01*
X152696904Y-113479761D01*
X152649285Y-113432142D01*
X149156904Y-113527380D02*
X149156904Y-112527380D01*
X149395000Y-112527380D01*
X149537857Y-112575000D01*
X149633095Y-112670238D01*
X149680714Y-112765476D01*
X149728333Y-112955952D01*
X149728333Y-113098809D01*
X149680714Y-113289285D01*
X149633095Y-113384523D01*
X149537857Y-113479761D01*
X149395000Y-113527380D01*
X149156904Y-113527380D01*
X150585476Y-112860714D02*
X150585476Y-113527380D01*
X150347380Y-112479761D02*
X150109285Y-113194047D01*
X150728333Y-113194047D01*
X147759761Y-112535000D02*
X147807380Y-112392142D01*
X147807380Y-112154047D01*
X147759761Y-112058809D01*
X147712142Y-112011190D01*
X147616904Y-111963571D01*
X147521666Y-111963571D01*
X147426428Y-112011190D01*
X147378809Y-112058809D01*
X147331190Y-112154047D01*
X147283571Y-112344523D01*
X147235952Y-112439761D01*
X147188333Y-112487380D01*
X147093095Y-112535000D01*
X146997857Y-112535000D01*
X146902619Y-112487380D01*
X146855000Y-112439761D01*
X146807380Y-112344523D01*
X146807380Y-112106428D01*
X146855000Y-111963571D01*
X147807380Y-111535000D02*
X146807380Y-111535000D01*
X146807380Y-111154047D01*
X146855000Y-111058809D01*
X146902619Y-111011190D01*
X146997857Y-110963571D01*
X147140714Y-110963571D01*
X147235952Y-111011190D01*
X147283571Y-111058809D01*
X147331190Y-111154047D01*
X147331190Y-111535000D01*
X147807380Y-110535000D02*
X146807380Y-110535000D01*
X147712142Y-109487380D02*
X147759761Y-109535000D01*
X147807380Y-109677857D01*
X147807380Y-109773095D01*
X147759761Y-109915952D01*
X147664523Y-110011190D01*
X147569285Y-110058809D01*
X147378809Y-110106428D01*
X147235952Y-110106428D01*
X147045476Y-110058809D01*
X146950238Y-110011190D01*
X146855000Y-109915952D01*
X146807380Y-109773095D01*
X146807380Y-109677857D01*
X146855000Y-109535000D01*
X146902619Y-109487380D01*
X147759761Y-109106428D02*
X147807380Y-108963571D01*
X147807380Y-108725476D01*
X147759761Y-108630238D01*
X147712142Y-108582619D01*
X147616904Y-108535000D01*
X147521666Y-108535000D01*
X147426428Y-108582619D01*
X147378809Y-108630238D01*
X147331190Y-108725476D01*
X147283571Y-108915952D01*
X147235952Y-109011190D01*
X147188333Y-109058809D01*
X147093095Y-109106428D01*
X146997857Y-109106428D01*
X146902619Y-109058809D01*
X146855000Y-109011190D01*
X146807380Y-108915952D01*
X146807380Y-108677857D01*
X146855000Y-108535000D01*
X145267380Y-113376428D02*
X144267380Y-113376428D01*
X144981666Y-113043095D01*
X144267380Y-112709761D01*
X145267380Y-112709761D01*
X145267380Y-112233571D02*
X144267380Y-112233571D01*
X145219761Y-111805000D02*
X145267380Y-111662142D01*
X145267380Y-111424047D01*
X145219761Y-111328809D01*
X145172142Y-111281190D01*
X145076904Y-111233571D01*
X144981666Y-111233571D01*
X144886428Y-111281190D01*
X144838809Y-111328809D01*
X144791190Y-111424047D01*
X144743571Y-111614523D01*
X144695952Y-111709761D01*
X144648333Y-111757380D01*
X144553095Y-111805000D01*
X144457857Y-111805000D01*
X144362619Y-111757380D01*
X144315000Y-111709761D01*
X144267380Y-111614523D01*
X144267380Y-111376428D01*
X144315000Y-111233571D01*
X144267380Y-110614523D02*
X144267380Y-110424047D01*
X144315000Y-110328809D01*
X144410238Y-110233571D01*
X144600714Y-110185952D01*
X144934047Y-110185952D01*
X145124523Y-110233571D01*
X145219761Y-110328809D01*
X145267380Y-110424047D01*
X145267380Y-110614523D01*
X145219761Y-110709761D01*
X145124523Y-110805000D01*
X144934047Y-110852619D01*
X144600714Y-110852619D01*
X144410238Y-110805000D01*
X144315000Y-110709761D01*
X144267380Y-110614523D01*
X142727380Y-113376428D02*
X141727380Y-113376428D01*
X142441666Y-113043095D01*
X141727380Y-112709761D01*
X142727380Y-112709761D01*
X141727380Y-112043095D02*
X141727380Y-111852619D01*
X141775000Y-111757380D01*
X141870238Y-111662142D01*
X142060714Y-111614523D01*
X142394047Y-111614523D01*
X142584523Y-111662142D01*
X142679761Y-111757380D01*
X142727380Y-111852619D01*
X142727380Y-112043095D01*
X142679761Y-112138333D01*
X142584523Y-112233571D01*
X142394047Y-112281190D01*
X142060714Y-112281190D01*
X141870238Y-112233571D01*
X141775000Y-112138333D01*
X141727380Y-112043095D01*
X142679761Y-111233571D02*
X142727380Y-111090714D01*
X142727380Y-110852619D01*
X142679761Y-110757380D01*
X142632142Y-110709761D01*
X142536904Y-110662142D01*
X142441666Y-110662142D01*
X142346428Y-110709761D01*
X142298809Y-110757380D01*
X142251190Y-110852619D01*
X142203571Y-111043095D01*
X142155952Y-111138333D01*
X142108333Y-111185952D01*
X142013095Y-111233571D01*
X141917857Y-111233571D01*
X141822619Y-111185952D01*
X141775000Y-111138333D01*
X141727380Y-111043095D01*
X141727380Y-110805000D01*
X141775000Y-110662142D01*
X142727380Y-110233571D02*
X141727380Y-110233571D01*
X140139761Y-112455476D02*
X140187380Y-112312619D01*
X140187380Y-112074523D01*
X140139761Y-111979285D01*
X140092142Y-111931666D01*
X139996904Y-111884047D01*
X139901666Y-111884047D01*
X139806428Y-111931666D01*
X139758809Y-111979285D01*
X139711190Y-112074523D01*
X139663571Y-112265000D01*
X139615952Y-112360238D01*
X139568333Y-112407857D01*
X139473095Y-112455476D01*
X139377857Y-112455476D01*
X139282619Y-112407857D01*
X139235000Y-112360238D01*
X139187380Y-112265000D01*
X139187380Y-112026904D01*
X139235000Y-111884047D01*
X140092142Y-110884047D02*
X140139761Y-110931666D01*
X140187380Y-111074523D01*
X140187380Y-111169761D01*
X140139761Y-111312619D01*
X140044523Y-111407857D01*
X139949285Y-111455476D01*
X139758809Y-111503095D01*
X139615952Y-111503095D01*
X139425476Y-111455476D01*
X139330238Y-111407857D01*
X139235000Y-111312619D01*
X139187380Y-111169761D01*
X139187380Y-111074523D01*
X139235000Y-110931666D01*
X139282619Y-110884047D01*
X140187380Y-110455476D02*
X139187380Y-110455476D01*
X140187380Y-109884047D02*
X139615952Y-110312619D01*
X139187380Y-109884047D02*
X139758809Y-110455476D01*
X139139761Y-108741190D02*
X140425476Y-109598333D01*
X140139761Y-108455476D02*
X140187380Y-108312619D01*
X140187380Y-108074523D01*
X140139761Y-107979285D01*
X140092142Y-107931666D01*
X139996904Y-107884047D01*
X139901666Y-107884047D01*
X139806428Y-107931666D01*
X139758809Y-107979285D01*
X139711190Y-108074523D01*
X139663571Y-108265000D01*
X139615952Y-108360238D01*
X139568333Y-108407857D01*
X139473095Y-108455476D01*
X139377857Y-108455476D01*
X139282619Y-108407857D01*
X139235000Y-108360238D01*
X139187380Y-108265000D01*
X139187380Y-108026904D01*
X139235000Y-107884047D01*
X140092142Y-106884047D02*
X140139761Y-106931666D01*
X140187380Y-107074523D01*
X140187380Y-107169761D01*
X140139761Y-107312619D01*
X140044523Y-107407857D01*
X139949285Y-107455476D01*
X139758809Y-107503095D01*
X139615952Y-107503095D01*
X139425476Y-107455476D01*
X139330238Y-107407857D01*
X139235000Y-107312619D01*
X139187380Y-107169761D01*
X139187380Y-107074523D01*
X139235000Y-106931666D01*
X139282619Y-106884047D01*
X140187380Y-105979285D02*
X140187380Y-106455476D01*
X139187380Y-106455476D01*
X136433095Y-112575000D02*
X136337857Y-112527380D01*
X136195000Y-112527380D01*
X136052142Y-112575000D01*
X135956904Y-112670238D01*
X135909285Y-112765476D01*
X135861666Y-112955952D01*
X135861666Y-113098809D01*
X135909285Y-113289285D01*
X135956904Y-113384523D01*
X136052142Y-113479761D01*
X136195000Y-113527380D01*
X136290238Y-113527380D01*
X136433095Y-113479761D01*
X136480714Y-113432142D01*
X136480714Y-113098809D01*
X136290238Y-113098809D01*
X136909285Y-113527380D02*
X136909285Y-112527380D01*
X137480714Y-113527380D01*
X137480714Y-112527380D01*
X137956904Y-113527380D02*
X137956904Y-112527380D01*
X138195000Y-112527380D01*
X138337857Y-112575000D01*
X138433095Y-112670238D01*
X138480714Y-112765476D01*
X138528333Y-112955952D01*
X138528333Y-113098809D01*
X138480714Y-113289285D01*
X138433095Y-113384523D01*
X138337857Y-113479761D01*
X138195000Y-113527380D01*
X137956904Y-113527380D01*
X134464523Y-112527380D02*
X133988333Y-112527380D01*
X133940714Y-113003571D01*
X133988333Y-112955952D01*
X134083571Y-112908333D01*
X134321666Y-112908333D01*
X134416904Y-112955952D01*
X134464523Y-113003571D01*
X134512142Y-113098809D01*
X134512142Y-113336904D01*
X134464523Y-113432142D01*
X134416904Y-113479761D01*
X134321666Y-113527380D01*
X134083571Y-113527380D01*
X133988333Y-113479761D01*
X133940714Y-113432142D01*
X134797857Y-112527380D02*
X135131190Y-113527380D01*
X135464523Y-112527380D01*
X131353095Y-112527380D02*
X131972142Y-112527380D01*
X131638809Y-112908333D01*
X131781666Y-112908333D01*
X131876904Y-112955952D01*
X131924523Y-113003571D01*
X131972142Y-113098809D01*
X131972142Y-113336904D01*
X131924523Y-113432142D01*
X131876904Y-113479761D01*
X131781666Y-113527380D01*
X131495952Y-113527380D01*
X131400714Y-113479761D01*
X131353095Y-113432142D01*
X132257857Y-112527380D02*
X132591190Y-113527380D01*
X132924523Y-112527380D01*
%TO.C,U2*%
X168148095Y-96782380D02*
X168148095Y-97591904D01*
X168195714Y-97687142D01*
X168243333Y-97734761D01*
X168338571Y-97782380D01*
X168529047Y-97782380D01*
X168624285Y-97734761D01*
X168671904Y-97687142D01*
X168719523Y-97591904D01*
X168719523Y-96782380D01*
X169148095Y-96877619D02*
X169195714Y-96830000D01*
X169290952Y-96782380D01*
X169529047Y-96782380D01*
X169624285Y-96830000D01*
X169671904Y-96877619D01*
X169719523Y-96972857D01*
X169719523Y-97068095D01*
X169671904Y-97210952D01*
X169100476Y-97782380D01*
X169719523Y-97782380D01*
%TO.C,C100nF1*%
X167703809Y-96017142D02*
X167656190Y-96064761D01*
X167513333Y-96112380D01*
X167418095Y-96112380D01*
X167275238Y-96064761D01*
X167180000Y-95969523D01*
X167132380Y-95874285D01*
X167084761Y-95683809D01*
X167084761Y-95540952D01*
X167132380Y-95350476D01*
X167180000Y-95255238D01*
X167275238Y-95160000D01*
X167418095Y-95112380D01*
X167513333Y-95112380D01*
X167656190Y-95160000D01*
X167703809Y-95207619D01*
X168656190Y-96112380D02*
X168084761Y-96112380D01*
X168370476Y-96112380D02*
X168370476Y-95112380D01*
X168275238Y-95255238D01*
X168180000Y-95350476D01*
X168084761Y-95398095D01*
X169275238Y-95112380D02*
X169370476Y-95112380D01*
X169465714Y-95160000D01*
X169513333Y-95207619D01*
X169560952Y-95302857D01*
X169608571Y-95493333D01*
X169608571Y-95731428D01*
X169560952Y-95921904D01*
X169513333Y-96017142D01*
X169465714Y-96064761D01*
X169370476Y-96112380D01*
X169275238Y-96112380D01*
X169180000Y-96064761D01*
X169132380Y-96017142D01*
X169084761Y-95921904D01*
X169037142Y-95731428D01*
X169037142Y-95493333D01*
X169084761Y-95302857D01*
X169132380Y-95207619D01*
X169180000Y-95160000D01*
X169275238Y-95112380D01*
X170227619Y-95112380D02*
X170322857Y-95112380D01*
X170418095Y-95160000D01*
X170465714Y-95207619D01*
X170513333Y-95302857D01*
X170560952Y-95493333D01*
X170560952Y-95731428D01*
X170513333Y-95921904D01*
X170465714Y-96017142D01*
X170418095Y-96064761D01*
X170322857Y-96112380D01*
X170227619Y-96112380D01*
X170132380Y-96064761D01*
X170084761Y-96017142D01*
X170037142Y-95921904D01*
X169989523Y-95731428D01*
X169989523Y-95493333D01*
X170037142Y-95302857D01*
X170084761Y-95207619D01*
X170132380Y-95160000D01*
X170227619Y-95112380D01*
X170989523Y-95445714D02*
X170989523Y-96112380D01*
X170989523Y-95540952D02*
X171037142Y-95493333D01*
X171132380Y-95445714D01*
X171275238Y-95445714D01*
X171370476Y-95493333D01*
X171418095Y-95588571D01*
X171418095Y-96112380D01*
X172227619Y-95588571D02*
X171894285Y-95588571D01*
X171894285Y-96112380D02*
X171894285Y-95112380D01*
X172370476Y-95112380D01*
X173275238Y-96112380D02*
X172703809Y-96112380D01*
X172989523Y-96112380D02*
X172989523Y-95112380D01*
X172894285Y-95255238D01*
X172799047Y-95350476D01*
X172703809Y-95398095D01*
%TD*%
M02*
